<svg xmlns="http://www.w3.org/2000/svg" xmlns:xlink="http://www.w3.org/1999/xlink" width="2560" zoomAndPan="magnify" viewBox="0 0 1920 1079.999946" height="1440" preserveAspectRatio="xMidYMid meet" version="1.0"><defs><g/><clipPath id="f72e11857a"><path d="M 654.332031 342 L 1040 342 L 1040 582 L 654.332031 582 Z M 654.332031 342 " clip-rule="nonzero"/></clipPath><clipPath id="daeb98aa57"><path d="M 752 413 L 973 413 L 973 707.742188 L 752 707.742188 Z M 752 413 " clip-rule="nonzero"/></clipPath></defs><g clip-path="url(#f72e11857a)"><path fill="#bfe063" d="M 876.878906 571.367188 C 876.878906 571.367188 803.464844 573.71875 734.753906 514.675781 C 666.042969 455.632812 655.460938 343.8125 654.679688 344.597656 C 653.894531 345.382812 758.660156 324.351562 835.335938 394.105469 C 912.015625 463.859375 876.878906 571.367188 876.878906 571.367188 Z M 1019.390625 497.039062 C 1041.335938 453.28125 1039.507812 397.371094 1039.507812 397.371094 C 1039.507812 397.371094 968.839844 396.847656 929.652344 445.3125 C 878.96875 507.753906 899.867188 581.949219 899.867188 581.949219 C 899.867188 581.949219 987.648438 560.265625 1019.390625 497.039062 Z M 1019.390625 497.039062 " fill-opacity="1" fill-rule="nonzero"/></g><g clip-path="url(#daeb98aa57)"><path fill="#008000" d="M 970.277344 461.25 C 967.792969 458.636719 963.613281 458.636719 961 461.117188 C 919.59375 501.875 899.214844 550.335938 889.285156 599.714844 C 878.3125 543.804688 847.617188 458.898438 761.53125 414.222656 C 758.265625 412.523438 754.347656 413.832031 752.78125 416.964844 C 751.082031 420.101562 752.386719 424.148438 755.523438 425.71875 C 875.703125 488.15625 881.972656 634.59375 882.234375 652.226562 C 880.925781 668.816406 880.535156 685.144531 880.402344 701.082031 C 880.402344 704.738281 883.277344 707.613281 886.933594 707.613281 C 890.460938 707.613281 893.46875 704.738281 893.46875 701.082031 C 893.597656 686.191406 893.988281 671.039062 895.035156 655.625 C 895.164062 655.101562 895.296875 654.578125 895.296875 654.054688 L 895.296875 652.617188 C 900.257812 588.742188 917.109375 522.382812 970.144531 470.261719 C 972.757812 467.910156 972.757812 463.859375 970.277344 461.25 Z M 970.277344 461.25 " fill-opacity="1" fill-rule="nonzero"/></g><g fill="#008000" fill-opacity="1"><g transform="translate(0.000048, 701.746056)"><g><path d="M 74.59375 -51.671875 C 80.664062 -50.242188 85.382812 -47.320312 88.75 -42.90625 C 92.113281 -38.5 93.796875 -33.398438 93.796875 -27.609375 C 93.796875 -18.785156 90.878906 -11.976562 85.046875 -7.1875 C 79.210938 -2.394531 70.835938 0 59.921875 0 L 7.125 0 L 7.125 -100.78125 L 58.5 -100.78125 C 68.75 -100.78125 76.816406 -98.550781 82.703125 -94.09375 C 88.585938 -89.632812 91.53125 -83.132812 91.53125 -74.59375 C 91.53125 -68.707031 89.988281 -63.742188 86.90625 -59.703125 C 83.820312 -55.671875 79.71875 -52.992188 74.59375 -51.671875 Z M 38.71875 -61.5 L 50.953125 -61.5 C 53.804688 -61.5 55.921875 -62.066406 57.296875 -63.203125 C 58.671875 -64.335938 59.359375 -66.09375 59.359375 -68.46875 C 59.359375 -70.9375 58.671875 -72.765625 57.296875 -73.953125 C 55.921875 -75.140625 53.804688 -75.734375 50.953125 -75.734375 L 38.71875 -75.734375 Z M 53.09375 -25.34375 C 55.9375 -25.34375 58.046875 -25.882812 59.421875 -26.96875 C 60.804688 -28.0625 61.5 -29.84375 61.5 -32.3125 C 61.5 -37.15625 58.695312 -39.578125 53.09375 -39.578125 L 38.71875 -39.578125 L 38.71875 -25.34375 Z M 53.09375 -25.34375 "/></g></g></g><g fill="#008000" fill-opacity="1"><g transform="translate(126.261115, 701.746056)"><g><path d="M 57.796875 0 L 38.859375 -36.15625 L 38.71875 -36.15625 L 38.71875 0 L 7.125 0 L 7.125 -100.78125 L 54.09375 -100.78125 C 62.25 -100.78125 69.222656 -99.332031 75.015625 -96.4375 C 80.804688 -93.539062 85.144531 -89.601562 88.03125 -84.625 C 90.925781 -79.644531 92.375 -74.019531 92.375 -67.75 C 92.375 -61.019531 90.5 -55.039062 86.75 -49.8125 C 83.007812 -44.59375 77.628906 -40.847656 70.609375 -38.578125 L 92.53125 0 Z M 38.71875 -57.21875 L 51.25 -57.21875 C 54.28125 -57.21875 56.554688 -57.90625 58.078125 -59.28125 C 59.597656 -60.65625 60.359375 -62.816406 60.359375 -65.765625 C 60.359375 -68.421875 59.570312 -70.503906 58 -72.015625 C 56.4375 -73.535156 54.1875 -74.296875 51.25 -74.296875 L 38.71875 -74.296875 Z M 38.71875 -57.21875 "/></g></g></g><g fill="#008000" fill-opacity="1"><g transform="translate(250.529386, 701.746056)"><g><path d="M 38.71875 -75.578125 L 38.71875 -63.203125 L 70.03125 -63.203125 L 70.03125 -39.421875 L 38.71875 -39.421875 L 38.71875 -25.1875 L 74.296875 -25.1875 L 74.296875 0 L 7.125 0 L 7.125 -100.78125 L 74.296875 -100.78125 L 74.296875 -75.578125 Z M 38.71875 -75.578125 "/></g></g></g><g fill="#008000" fill-opacity="1"><g transform="translate(358.570642, 701.746056)"><g><path d="M 71.734375 -15.234375 L 38.140625 -15.234375 L 33.171875 0 L 0 0 L 36.859375 -100.78125 L 73.3125 -100.78125 L 110.03125 0 L 76.71875 0 Z M 64.0625 -39 L 54.9375 -67.046875 L 45.828125 -39 Z M 64.0625 -39 "/></g></g></g><g fill="#008000" fill-opacity="1"><g transform="translate(497.500161, 701.746056)"><g><path d="M 4.265625 -50.53125 C 4.265625 -60.5 6.28125 -69.375 10.3125 -77.15625 C 14.351562 -84.9375 20.117188 -90.984375 27.609375 -95.296875 C 35.109375 -99.617188 43.9375 -101.78125 54.09375 -101.78125 C 62.820312 -101.78125 70.625 -100.140625 77.5 -96.859375 C 84.382812 -93.585938 89.984375 -88.960938 94.296875 -82.984375 C 98.617188 -77.003906 101.492188 -70.03125 102.921875 -62.0625 L 69.609375 -62.0625 C 68.085938 -65.382812 65.925781 -67.96875 63.125 -69.8125 C 60.332031 -71.664062 57.128906 -72.59375 53.515625 -72.59375 C 48.203125 -72.59375 44.003906 -70.597656 40.921875 -66.609375 C 37.835938 -62.628906 36.296875 -57.269531 36.296875 -50.53125 C 36.296875 -43.789062 37.835938 -38.425781 40.921875 -34.4375 C 44.003906 -30.457031 48.203125 -28.46875 53.515625 -28.46875 C 57.128906 -28.46875 60.332031 -29.390625 63.125 -31.234375 C 65.925781 -33.085938 68.085938 -35.675781 69.609375 -39 L 102.921875 -39 C 101.492188 -31.03125 98.617188 -24.054688 94.296875 -18.078125 C 89.984375 -12.097656 84.382812 -7.46875 77.5 -4.1875 C 70.625 -0.914062 62.820312 0.71875 54.09375 0.71875 C 43.9375 0.71875 35.109375 -1.4375 27.609375 -5.75 C 20.117188 -10.070312 14.351562 -16.125 10.3125 -23.90625 C 6.28125 -31.695312 4.265625 -40.570312 4.265625 -50.53125 Z M 4.265625 -50.53125 "/></g></g></g><g fill="#008000" fill-opacity="1"><g transform="translate(633.582843, 701.746056)"><g><path d="M 100.359375 -100.78125 L 100.359375 0 L 68.75 0 L 68.75 -39.28125 L 38.71875 -39.28125 L 38.71875 0 L 7.125 0 L 7.125 -100.78125 L 38.71875 -100.78125 L 38.71875 -64.484375 L 68.75 -64.484375 L 68.75 -100.78125 Z M 100.359375 -100.78125 "/></g></g></g><g fill="#008000" fill-opacity="1"><g transform="translate(769.950188, 701.746056)"><g><path d="M 78.296875 -100.78125 L 78.296875 -75.734375 L 38.71875 -75.734375 L 38.71875 -61.78125 L 67.1875 -61.78125 L 67.1875 -38 L 38.71875 -38 L 38.71875 0 L 7.125 0 L 7.125 -100.78125 Z M 78.296875 -100.78125 "/></g></g></g><g fill="#008000" fill-opacity="1"><g transform="translate(880.695932, 701.746056)"><g/></g></g><g fill="#008000" fill-opacity="1"><g transform="translate(933.793041, 701.746056)"><g><path d="M 71.3125 0 L 52.8125 -26.1875 L 37.4375 0 L 1.421875 0 L 34.59375 -51.953125 L 0 -100.78125 L 37.4375 -100.78125 L 55.234375 -75.578125 L 70.03125 -100.78125 L 106.046875 -100.78125 L 73.453125 -49.828125 L 108.75 0 Z M 71.3125 0 "/></g></g></g><g fill="#242424" fill-opacity="1"><g transform="translate(1071.454037, 701.746056)"><g/></g></g><g fill="#242424" fill-opacity="1"><g transform="translate(1124.565792, 701.746056)"><g><path d="M 111.03125 -100.78125 L 93.234375 0 L 61.640625 0 L 68.609375 -39.28125 L 38.578125 -39.28125 L 31.59375 0 L 0 0 L 17.796875 -100.78125 L 49.390625 -100.78125 L 42.984375 -64.484375 L 73.015625 -64.484375 L 79.421875 -100.78125 Z M 111.03125 -100.78125 "/></g></g></g><g fill="#242424" fill-opacity="1"><g transform="translate(1260.933155, 701.746056)"><g><path d="M 44.984375 -75.734375 L 42.84375 -63.203125 L 74.15625 -63.203125 L 69.890625 -39.421875 L 38.578125 -39.421875 L 36.015625 -25.1875 L 71.59375 -25.1875 L 67.1875 0 L 0 0 L 17.796875 -100.78125 L 84.984375 -100.78125 L 80.5625 -75.734375 Z M 44.984375 -75.734375 "/></g></g></g><g fill="#242424" fill-opacity="1"><g transform="translate(1368.974411, 701.746056)"><g><path d="M 67.328125 -15.234375 L 33.734375 -15.234375 L 26.046875 0 L -7.125 0 L 47.546875 -100.78125 L 83.984375 -100.78125 L 102.921875 0 L 69.609375 0 Z M 63.90625 -39 L 59.78125 -67.046875 L 45.6875 -39 Z M 63.90625 -39 "/></g></g></g><g fill="#242424" fill-opacity="1"><g transform="translate(1507.903929, 701.746056)"><g><path d="M 35.875 -23.90625 L 66.328125 -23.90625 L 62.0625 0 L 0 0 L 17.796875 -100.78125 L 49.390625 -100.78125 Z M 35.875 -23.90625 "/></g></g></g><g fill="#242424" fill-opacity="1"><g transform="translate(1608.828076, 701.746056)"><g><path d="M 96.9375 -100.78125 L 92.53125 -75.734375 L 65.765625 -75.734375 L 52.375 0 L 20.78125 0 L 34.15625 -75.734375 L 7.6875 -75.734375 L 12.09375 -100.78125 Z M 96.9375 -100.78125 "/></g></g></g><g fill="#242424" fill-opacity="1"><g transform="translate(1725.40986, 701.746056)"><g><path d="M 111.03125 -100.78125 L 93.234375 0 L 61.640625 0 L 68.609375 -39.28125 L 38.578125 -39.28125 L 31.59375 0 L 0 0 L 17.796875 -100.78125 L 49.390625 -100.78125 L 42.984375 -64.484375 L 73.015625 -64.484375 L 79.421875 -100.78125 Z M 111.03125 -100.78125 "/></g></g></g></svg>