<svg xmlns="http://www.w3.org/2000/svg" xmlns:xlink="http://www.w3.org/1999/xlink" width="2560" zoomAndPan="magnify" viewBox="0 0 1920 1079.999946" height="1440" preserveAspectRatio="xMidYMid meet" version="1.0"><defs><g/><clipPath id="45ecd4f93d"><path d="M 719.242188 337.058594 L 1022.992188 337.058594 L 1022.992188 527 L 719.242188 527 Z M 719.242188 337.058594 " clip-rule="nonzero"/></clipPath></defs><g clip-path="url(#45ecd4f93d)"><path fill="#bfe063" d="M 894.417969 517.714844 C 894.417969 517.714844 836.632812 519.566406 782.546875 473.089844 C 728.464844 426.617188 720.132812 338.601562 719.519531 339.21875 C 718.902344 339.835938 801.363281 323.28125 861.71875 378.1875 C 922.074219 433.09375 894.417969 517.714844 894.417969 517.714844 Z M 1006.59375 459.210938 C 1023.867188 424.765625 1022.429688 380.757812 1022.429688 380.757812 C 1022.429688 380.757812 966.804688 380.347656 935.957031 418.492188 C 896.0625 467.640625 912.511719 526.042969 912.511719 526.042969 C 912.511719 526.042969 981.609375 508.976562 1006.59375 459.210938 Z M 1006.59375 459.210938 " fill-opacity="1" fill-rule="nonzero"/></g><path fill="#008000" d="M 967.933594 431.035156 C 965.980469 428.980469 962.691406 428.980469 960.632812 430.933594 C 928.039062 463.015625 912 501.160156 904.183594 540.027344 C 895.546875 496.019531 871.386719 429.1875 803.625 394.019531 C 801.054688 392.683594 797.96875 393.710938 796.738281 396.179688 C 795.398438 398.648438 796.429688 401.835938 798.894531 403.070312 C 893.492188 452.21875 898.425781 567.480469 898.632812 581.363281 C 897.605469 594.417969 897.296875 607.273438 897.191406 619.816406 C 897.191406 622.695312 899.457031 624.957031 902.335938 624.957031 C 905.109375 624.957031 907.476562 622.695312 907.476562 619.816406 C 907.578125 608.09375 907.886719 596.167969 908.710938 584.035156 C 908.8125 583.625 908.914062 583.210938 908.914062 582.800781 L 908.914062 581.667969 C 912.820312 531.390625 926.085938 479.15625 967.832031 438.132812 C 969.886719 436.28125 969.886719 433.09375 967.933594 431.035156 Z M 967.933594 431.035156 " fill-opacity="1" fill-rule="nonzero"/><g fill="#008000" fill-opacity="1"><g transform="translate(204.200055, 620.333699)"><g><path d="M 58.734375 -40.6875 C 63.515625 -39.5625 67.226562 -37.257812 69.875 -33.78125 C 72.53125 -30.3125 73.859375 -26.300781 73.859375 -21.75 C 73.859375 -14.789062 71.5625 -9.425781 66.96875 -5.65625 C 62.375 -1.882812 55.78125 0 47.1875 0 L 5.609375 0 L 5.609375 -79.34375 L 46.0625 -79.34375 C 54.132812 -79.34375 60.484375 -77.585938 65.109375 -74.078125 C 69.742188 -70.566406 72.0625 -65.453125 72.0625 -58.734375 C 72.0625 -54.097656 70.847656 -50.191406 68.421875 -47.015625 C 65.992188 -43.835938 62.765625 -41.726562 58.734375 -40.6875 Z M 30.484375 -48.421875 L 40.125 -48.421875 C 42.363281 -48.421875 44.023438 -48.867188 45.109375 -49.765625 C 46.191406 -50.660156 46.734375 -52.039062 46.734375 -53.90625 C 46.734375 -55.851562 46.191406 -57.289062 45.109375 -58.21875 C 44.023438 -59.15625 42.363281 -59.625 40.125 -59.625 L 30.484375 -59.625 Z M 41.8125 -19.953125 C 44.050781 -19.953125 45.710938 -20.378906 46.796875 -21.234375 C 47.878906 -22.097656 48.421875 -23.5 48.421875 -25.4375 C 48.421875 -29.25 46.21875 -31.15625 41.8125 -31.15625 L 30.484375 -31.15625 L 30.484375 -19.953125 Z M 41.8125 -19.953125 "/></g></g></g><g fill="#008000" fill-opacity="1"><g transform="translate(303.604331, 620.333699)"><g><path d="M 45.5 0 L 30.59375 -28.46875 L 30.484375 -28.46875 L 30.484375 0 L 5.609375 0 L 5.609375 -79.34375 L 42.59375 -79.34375 C 49.019531 -79.34375 54.507812 -78.203125 59.0625 -75.921875 C 63.625 -73.648438 67.039062 -70.550781 69.3125 -66.625 C 71.59375 -62.707031 72.734375 -58.28125 72.734375 -53.34375 C 72.734375 -48.039062 71.257812 -43.332031 68.3125 -39.21875 C 65.363281 -35.113281 61.125 -32.164062 55.59375 -30.375 L 72.84375 0 Z M 30.484375 -45.0625 L 40.34375 -45.0625 C 42.738281 -45.0625 44.53125 -45.601562 45.71875 -46.6875 C 46.914062 -47.769531 47.515625 -49.46875 47.515625 -51.78125 C 47.515625 -53.875 46.898438 -55.515625 45.671875 -56.703125 C 44.441406 -57.898438 42.664062 -58.5 40.34375 -58.5 L 30.484375 -58.5 Z M 30.484375 -45.0625 "/></g></g></g><g fill="#008000" fill-opacity="1"><g transform="translate(401.439695, 620.333699)"><g><path d="M 30.484375 -59.515625 L 30.484375 -49.765625 L 55.140625 -49.765625 L 55.140625 -31.046875 L 30.484375 -31.046875 L 30.484375 -19.84375 L 58.5 -19.84375 L 58.5 0 L 5.609375 0 L 5.609375 -79.34375 L 58.5 -79.34375 L 58.5 -59.515625 Z M 30.484375 -59.515625 "/></g></g></g><g fill="#008000" fill-opacity="1"><g transform="translate(486.499667, 620.333699)"><g><path d="M 56.484375 -12 L 30.03125 -12 L 26.109375 0 L 0 0 L 29.03125 -79.34375 L 57.71875 -79.34375 L 86.640625 0 L 60.40625 0 Z M 50.4375 -30.703125 L 43.265625 -52.78125 L 36.09375 -30.703125 Z M 50.4375 -30.703125 "/></g></g></g><g fill="#008000" fill-opacity="1"><g transform="translate(595.877708, 620.333699)"><g><path d="M 3.359375 -39.78125 C 3.359375 -47.632812 4.945312 -54.625 8.125 -60.75 C 11.300781 -66.875 15.835938 -71.632812 21.734375 -75.03125 C 27.640625 -78.4375 34.59375 -80.140625 42.59375 -80.140625 C 49.46875 -80.140625 55.613281 -78.847656 61.03125 -76.265625 C 66.445312 -73.691406 70.851562 -70.050781 74.25 -65.34375 C 77.644531 -60.632812 79.90625 -55.140625 81.03125 -48.859375 L 54.8125 -48.859375 C 53.613281 -51.472656 51.910156 -53.507812 49.703125 -54.96875 C 47.503906 -56.425781 44.984375 -57.15625 42.140625 -57.15625 C 37.953125 -57.15625 34.644531 -55.585938 32.21875 -52.453125 C 29.789062 -49.316406 28.578125 -45.09375 28.578125 -39.78125 C 28.578125 -34.476562 29.789062 -30.257812 32.21875 -27.125 C 34.644531 -23.988281 37.953125 -22.421875 42.140625 -22.421875 C 44.984375 -22.421875 47.503906 -23.144531 49.703125 -24.59375 C 51.910156 -26.050781 53.613281 -28.085938 54.8125 -30.703125 L 81.03125 -30.703125 C 79.90625 -24.429688 77.644531 -18.941406 74.25 -14.234375 C 70.851562 -9.523438 66.445312 -5.878906 61.03125 -3.296875 C 55.613281 -0.722656 49.46875 0.5625 42.59375 0.5625 C 34.59375 0.5625 27.640625 -1.132812 21.734375 -4.53125 C 15.835938 -7.9375 11.300781 -12.703125 8.125 -18.828125 C 4.945312 -24.953125 3.359375 -31.9375 3.359375 -39.78125 Z M 3.359375 -39.78125 "/></g></g></g><g fill="#008000" fill-opacity="1"><g transform="translate(703.014458, 620.333699)"><g><path d="M 79.015625 -79.34375 L 79.015625 0 L 54.140625 0 L 54.140625 -30.9375 L 30.484375 -30.9375 L 30.484375 0 L 5.609375 0 L 5.609375 -79.34375 L 30.484375 -79.34375 L 30.484375 -50.765625 L 54.140625 -50.765625 L 54.140625 -79.34375 Z M 79.015625 -79.34375 "/></g></g></g><g fill="#008000" fill-opacity="1"><g transform="translate(810.375322, 620.333699)"><g><path d="M 61.640625 -79.34375 L 61.640625 -59.625 L 30.484375 -59.625 L 30.484375 -48.640625 L 52.90625 -48.640625 L 52.90625 -29.921875 L 30.484375 -29.921875 L 30.484375 0 L 5.609375 0 L 5.609375 -79.34375 Z M 61.640625 -79.34375 "/></g></g></g><g fill="#008000" fill-opacity="1"><g transform="translate(897.564514, 620.333699)"><g/></g></g><g fill="#008000" fill-opacity="1"><g transform="translate(939.367421, 620.333699)"><g><path d="M 56.15625 0 L 41.578125 -20.625 L 29.484375 0 L 1.125 0 L 27.234375 -40.90625 L 0 -79.34375 L 29.484375 -79.34375 L 43.484375 -59.515625 L 55.140625 -79.34375 L 83.5 -79.34375 L 57.828125 -39.234375 L 85.625 0 Z M 56.15625 0 "/></g></g></g><g fill="#242424" fill-opacity="1"><g transform="translate(1047.746765, 620.333699)"><g/></g></g><g fill="#242424" fill-opacity="1"><g transform="translate(1089.561203, 620.333699)"><g><path d="M 87.421875 -79.34375 L 73.40625 0 L 48.53125 0 L 54.015625 -30.9375 L 30.375 -30.9375 L 24.875 0 L 0 0 L 14.015625 -79.34375 L 38.890625 -79.34375 L 33.84375 -50.765625 L 57.5 -50.765625 L 62.546875 -79.34375 Z M 87.421875 -79.34375 "/></g></g></g><g fill="#242424" fill-opacity="1"><g transform="translate(1196.92208, 620.333699)"><g><path d="M 35.421875 -59.625 L 33.734375 -49.765625 L 58.390625 -49.765625 L 55.03125 -31.046875 L 30.375 -31.046875 L 28.359375 -19.84375 L 56.375 -19.84375 L 52.90625 0 L 0 0 L 14.015625 -79.34375 L 66.90625 -79.34375 L 63.4375 -59.625 Z M 35.421875 -59.625 "/></g></g></g><g fill="#242424" fill-opacity="1"><g transform="translate(1281.982052, 620.333699)"><g><path d="M 53.015625 -12 L 26.5625 -12 L 20.515625 0 L -5.609375 0 L 37.4375 -79.34375 L 66.125 -79.34375 L 81.03125 0 L 54.8125 0 Z M 50.328125 -30.703125 L 47.078125 -52.78125 L 35.984375 -30.703125 Z M 50.328125 -30.703125 "/></g></g></g><g fill="#242424" fill-opacity="1"><g transform="translate(1391.360093, 620.333699)"><g><path d="M 28.25 -18.828125 L 52.234375 -18.828125 L 48.859375 0 L 0 0 L 14.015625 -79.34375 L 38.890625 -79.34375 Z M 28.25 -18.828125 "/></g></g></g><g fill="#242424" fill-opacity="1"><g transform="translate(1470.816825, 620.333699)"><g><path d="M 76.328125 -79.34375 L 72.84375 -59.625 L 51.78125 -59.625 L 41.25 0 L 16.359375 0 L 26.90625 -59.625 L 6.046875 -59.625 L 9.53125 -79.34375 Z M 76.328125 -79.34375 "/></g></g></g><g fill="#242424" fill-opacity="1"><g transform="translate(1562.600682, 620.333699)"><g><path d="M 87.421875 -79.34375 L 73.40625 0 L 48.53125 0 L 54.015625 -30.9375 L 30.375 -30.9375 L 24.875 0 L 0 0 L 14.015625 -79.34375 L 38.890625 -79.34375 L 33.84375 -50.765625 L 57.5 -50.765625 L 62.546875 -79.34375 Z M 87.421875 -79.34375 "/></g></g></g><g fill="#26221d" fill-opacity="1"><g transform="translate(240.619333, 729.518985)"><g><path d="M 11.1875 -12.9375 L 11.1875 0 L 3.203125 0 L 3.203125 -36.21875 L 16.78125 -36.21875 C 18.726562 -36.21875 20.546875 -35.726562 22.234375 -34.75 C 23.921875 -33.78125 25.28125 -32.425781 26.3125 -30.6875 C 27.34375 -28.945312 27.859375 -26.921875 27.859375 -24.609375 C 27.859375 -22.585938 27.484375 -20.796875 26.734375 -19.234375 C 25.992188 -17.671875 25 -16.390625 23.75 -15.390625 C 22.507812 -14.398438 21.128906 -13.707031 19.609375 -13.3125 L 29.984375 0 L 19.875 0 L 11.234375 -12.9375 Z M 15.453125 -29.9375 L 11.1875 -29.9375 L 11.1875 -19.234375 L 15.453125 -19.234375 C 16.617188 -19.234375 17.707031 -19.691406 18.71875 -20.609375 C 19.726562 -21.535156 20.234375 -22.867188 20.234375 -24.609375 C 20.234375 -26.273438 19.726562 -27.578125 18.71875 -28.515625 C 17.707031 -29.460938 16.617188 -29.9375 15.453125 -29.9375 Z M 15.453125 -29.9375 "/></g></g></g><g fill="#26221d" fill-opacity="1"><g transform="translate(285.148845, 729.518985)"><g><path d="M 24.1875 -7.25 L 24.1875 0 L 3.203125 0 L 3.203125 -36.21875 L 24.1875 -36.21875 L 24.1875 -28.96875 L 11.1875 -28.96875 L 11.1875 -21.78125 L 23.65625 -21.78125 L 23.65625 -14.546875 L 11.1875 -14.546875 L 11.1875 -7.25 Z M 24.1875 -7.25 "/></g></g></g><g fill="#26221d" fill-opacity="1"><g transform="translate(327.707674, 729.518985)"><g><path d="M 11.1875 -12.9375 L 11.1875 0 L 3.203125 0 L 3.203125 -36.21875 L 16.78125 -36.21875 C 18.726562 -36.21875 20.546875 -35.726562 22.234375 -34.75 C 23.921875 -33.78125 25.28125 -32.425781 26.3125 -30.6875 C 27.34375 -28.945312 27.859375 -26.921875 27.859375 -24.609375 C 27.859375 -22.160156 27.34375 -20.066406 26.3125 -18.328125 C 25.28125 -16.585938 23.921875 -15.253906 22.234375 -14.328125 C 20.546875 -13.398438 18.726562 -12.9375 16.78125 -12.9375 Z M 15.453125 -29.9375 L 11.1875 -29.9375 L 11.1875 -19.234375 L 15.453125 -19.234375 C 16.617188 -19.234375 17.707031 -19.691406 18.71875 -20.609375 C 19.726562 -21.535156 20.234375 -22.867188 20.234375 -24.609375 C 20.234375 -26.273438 19.726562 -27.578125 18.71875 -28.515625 C 17.707031 -29.460938 16.617188 -29.9375 15.453125 -29.9375 Z M 15.453125 -29.9375 "/></g></g></g><g fill="#26221d" fill-opacity="1"><g transform="translate(371.54479, 729.518985)"><g><path d="M 22.90625 -13.84375 L 18.328125 -26.734375 L 13.75 -13.84375 Z M 36.4375 0 L 27.859375 0 L 25.25 -7.296875 L 11.453125 -7.296875 L 8.84375 0 L 0.265625 0 L 14.96875 -36.21875 L 21.734375 -36.21875 Z M 36.4375 0 "/></g></g></g><g fill="#26221d" fill-opacity="1"><g transform="translate(423.424424, 729.518985)"><g><path d="M 11.1875 0 L 3.203125 0 L 3.203125 -36.21875 L 11.1875 -36.21875 Z M 11.1875 0 "/></g></g></g><g fill="#26221d" fill-opacity="1"><g transform="translate(452.987394, 729.518985)"><g><path d="M 11.1875 -12.9375 L 11.1875 0 L 3.203125 0 L 3.203125 -36.21875 L 16.78125 -36.21875 C 18.726562 -36.21875 20.546875 -35.726562 22.234375 -34.75 C 23.921875 -33.78125 25.28125 -32.425781 26.3125 -30.6875 C 27.34375 -28.945312 27.859375 -26.921875 27.859375 -24.609375 C 27.859375 -22.585938 27.484375 -20.796875 26.734375 -19.234375 C 25.992188 -17.671875 25 -16.390625 23.75 -15.390625 C 22.507812 -14.398438 21.128906 -13.707031 19.609375 -13.3125 L 29.984375 0 L 19.875 0 L 11.234375 -12.9375 Z M 15.453125 -29.9375 L 11.1875 -29.9375 L 11.1875 -19.234375 L 15.453125 -19.234375 C 16.617188 -19.234375 17.707031 -19.691406 18.71875 -20.609375 C 19.726562 -21.535156 20.234375 -22.867188 20.234375 -24.609375 C 20.234375 -26.273438 19.726562 -27.578125 18.71875 -28.515625 C 17.707031 -29.460938 16.617188 -29.9375 15.453125 -29.9375 Z M 15.453125 -29.9375 "/></g></g></g><g fill="#26221d" fill-opacity="1"><g transform="translate(497.516901, 729.518985)"><g><path d="M 11.1875 0 L 3.203125 0 L 3.203125 -36.21875 L 11.1875 -36.21875 Z M 11.1875 0 "/></g></g></g><g fill="#26221d" fill-opacity="1"><g transform="translate(527.079871, 729.518985)"><g><path d="M 31.640625 0 L 23.65625 0 L 11.1875 -22.578125 L 11.1875 0 L 3.203125 0 L 3.203125 -36.21875 L 11.1875 -36.21875 L 23.65625 -13.640625 L 23.65625 -36.21875 L 31.640625 -36.21875 Z M 31.640625 0 "/></g></g></g><g fill="#26221d" fill-opacity="1"><g transform="translate(577.09533, 729.518985)"><g><path d="M 21.3125 -29.296875 C 19.394531 -29.296875 17.632812 -28.78125 16.03125 -27.75 C 14.4375 -26.71875 13.160156 -25.347656 12.203125 -23.640625 C 11.242188 -21.941406 10.765625 -20.0625 10.765625 -18 C 10.765625 -15.976562 11.242188 -14.101562 12.203125 -12.375 C 13.160156 -10.65625 14.4375 -9.28125 16.03125 -8.25 C 17.632812 -7.226562 19.394531 -6.71875 21.3125 -6.71875 C 22.476562 -6.71875 23.707031 -6.882812 25 -7.21875 C 26.300781 -7.550781 27.507812 -8.195312 28.625 -9.15625 C 29.75 -10.113281 30.628906 -11.5 31.265625 -13.3125 L 22.046875 -13.3125 L 22.046875 -19.328125 L 39.890625 -19.328125 L 39.890625 -18.109375 C 39.890625 -15.554688 39.410156 -13.148438 38.453125 -10.890625 C 37.492188 -8.640625 36.160156 -6.648438 34.453125 -4.921875 C 32.753906 -3.203125 30.785156 -1.863281 28.546875 -0.90625 C 26.304688 0.0507812 23.894531 0.53125 21.3125 0.53125 C 18.75 0.53125 16.335938 0.046875 14.078125 -0.921875 C 11.828125 -1.898438 9.847656 -3.242188 8.140625 -4.953125 C 6.441406 -6.660156 5.101562 -8.640625 4.125 -10.890625 C 3.144531 -13.148438 2.65625 -15.554688 2.65625 -18.109375 C 2.65625 -20.671875 3.144531 -23.078125 4.125 -25.328125 C 5.101562 -27.578125 6.441406 -29.554688 8.140625 -31.265625 C 9.847656 -32.972656 11.828125 -34.3125 14.078125 -35.28125 C 16.335938 -36.257812 18.75 -36.75 21.3125 -36.75 C 23.96875 -36.75 26.484375 -36.207031 28.859375 -35.125 C 31.242188 -34.039062 33.320312 -32.546875 35.09375 -30.640625 C 36.875 -28.742188 38.171875 -26.535156 38.984375 -24.015625 L 30.203125 -24.015625 C 29.316406 -25.941406 28.054688 -27.300781 26.421875 -28.09375 C 24.785156 -28.894531 23.082031 -29.296875 21.3125 -29.296875 Z M 21.3125 -29.296875 "/></g></g></g><g fill="#26221d" fill-opacity="1"><g transform="translate(634.034809, 729.518985)"><g/></g></g><g fill="#26221d" fill-opacity="1"><g transform="translate(662.532563, 729.518985)"><g><path d="M 23.125 -36.21875 L 31.640625 -36.21875 L 31.640625 0 L 23.125 0 L 23.125 -14.546875 L 11.1875 -14.546875 L 11.1875 0 L 3.203125 0 L 3.203125 -36.21875 L 11.1875 -36.21875 L 11.1875 -21.78125 L 23.125 -21.78125 Z M 23.125 -36.21875 "/></g></g></g><g fill="#26221d" fill-opacity="1"><g transform="translate(712.548047, 729.518985)"><g><path d="M 24.1875 -7.25 L 24.1875 0 L 3.203125 0 L 3.203125 -36.21875 L 24.1875 -36.21875 L 24.1875 -28.96875 L 11.1875 -28.96875 L 11.1875 -21.78125 L 23.65625 -21.78125 L 23.65625 -14.546875 L 11.1875 -14.546875 L 11.1875 -7.25 Z M 24.1875 -7.25 "/></g></g></g><g fill="#26221d" fill-opacity="1"><g transform="translate(755.10688, 729.518985)"><g><path d="M 22.90625 -13.84375 L 18.328125 -26.734375 L 13.75 -13.84375 Z M 36.4375 0 L 27.859375 0 L 25.25 -7.296875 L 11.453125 -7.296875 L 8.84375 0 L 0.265625 0 L 14.96875 -36.21875 L 21.734375 -36.21875 Z M 36.4375 0 "/></g></g></g><g fill="#26221d" fill-opacity="1"><g transform="translate(806.986515, 729.518985)"><g><path d="M 3.203125 0 L 3.203125 -36.21875 L 11.1875 -36.21875 L 11.1875 -7.25 L 24.1875 -7.25 L 24.1875 0 Z M 3.203125 0 "/></g></g></g><g fill="#26221d" fill-opacity="1"><g transform="translate(848.213806, 729.518985)"><g><path d="M 18.59375 -28.96875 L 18.59375 0 L 10.59375 0 L 10.59375 -28.96875 L 0.265625 -28.96875 L 0.265625 -36.21875 L 28.921875 -36.21875 L 28.921875 -28.96875 Z M 18.59375 -28.96875 "/></g></g></g><g fill="#26221d" fill-opacity="1"><g transform="translate(892.583553, 729.518985)"><g><path d="M 23.125 -36.21875 L 31.640625 -36.21875 L 31.640625 0 L 23.125 0 L 23.125 -14.546875 L 11.1875 -14.546875 L 11.1875 0 L 3.203125 0 L 3.203125 -36.21875 L 11.1875 -36.21875 L 11.1875 -21.78125 L 23.125 -21.78125 Z M 23.125 -36.21875 "/></g></g></g><g fill="#26221d" fill-opacity="1"><g transform="translate(942.599036, 729.518985)"><g><path d="M 11.296875 -7.25 L 4.53125 7.140625 L 0.15625 7.140625 L 3.40625 -7.25 Z M 11.296875 -7.25 "/></g></g></g><g fill="#26221d" fill-opacity="1"><g transform="translate(970.883748, 729.518985)"><g/></g></g><g fill="#26221d" fill-opacity="1"><g transform="translate(999.381502, 729.518985)"><g><path d="M 11.1875 -12.9375 L 11.1875 0 L 3.203125 0 L 3.203125 -36.21875 L 16.78125 -36.21875 C 18.726562 -36.21875 20.546875 -35.726562 22.234375 -34.75 C 23.921875 -33.78125 25.28125 -32.425781 26.3125 -30.6875 C 27.34375 -28.945312 27.859375 -26.921875 27.859375 -24.609375 C 27.859375 -22.585938 27.484375 -20.796875 26.734375 -19.234375 C 25.992188 -17.671875 25 -16.390625 23.75 -15.390625 C 22.507812 -14.398438 21.128906 -13.707031 19.609375 -13.3125 L 29.984375 0 L 19.875 0 L 11.234375 -12.9375 Z M 15.453125 -29.9375 L 11.1875 -29.9375 L 11.1875 -19.234375 L 15.453125 -19.234375 C 16.617188 -19.234375 17.707031 -19.691406 18.71875 -20.609375 C 19.726562 -21.535156 20.234375 -22.867188 20.234375 -24.609375 C 20.234375 -26.273438 19.726562 -27.578125 18.71875 -28.515625 C 17.707031 -29.460938 16.617188 -29.9375 15.453125 -29.9375 Z M 15.453125 -29.9375 "/></g></g></g><g fill="#26221d" fill-opacity="1"><g transform="translate(1043.911008, 729.518985)"><g><path d="M 24.1875 -7.25 L 24.1875 0 L 3.203125 0 L 3.203125 -36.21875 L 24.1875 -36.21875 L 24.1875 -28.96875 L 11.1875 -28.96875 L 11.1875 -21.78125 L 23.65625 -21.78125 L 23.65625 -14.546875 L 11.1875 -14.546875 L 11.1875 -7.25 Z M 24.1875 -7.25 "/></g></g></g><g fill="#26221d" fill-opacity="1"><g transform="translate(1086.469842, 729.518985)"><g><path d="M 17.265625 -5.640625 C 18.109375 -5.640625 19.023438 -5.769531 20.015625 -6.03125 C 21.015625 -6.300781 21.878906 -6.75 22.609375 -7.375 C 23.335938 -8 23.703125 -8.84375 23.703125 -9.90625 C 23.703125 -10.90625 23.316406 -11.703125 22.546875 -12.296875 C 21.785156 -12.898438 20.785156 -13.394531 19.546875 -13.78125 C 18.304688 -14.175781 16.945312 -14.539062 15.46875 -14.875 C 14 -15.21875 12.515625 -15.628906 11.015625 -16.109375 C 9.523438 -16.585938 8.160156 -17.21875 6.921875 -18 C 5.679688 -18.78125 4.675781 -19.789062 3.90625 -21.03125 C 3.144531 -22.28125 2.765625 -23.863281 2.765625 -25.78125 C 2.765625 -27.664062 3.15625 -29.289062 3.9375 -30.65625 C 4.71875 -32.019531 5.753906 -33.15625 7.046875 -34.0625 C 8.347656 -34.96875 9.804688 -35.640625 11.421875 -36.078125 C 13.035156 -36.523438 14.660156 -36.75 16.296875 -36.75 C 18.785156 -36.75 21.113281 -36.359375 23.28125 -35.578125 C 25.445312 -34.796875 27.210938 -33.5625 28.578125 -31.875 C 29.941406 -30.1875 30.660156 -27.957031 30.734375 -25.1875 L 23.015625 -25.1875 C 22.796875 -27.070312 22.132812 -28.378906 21.03125 -29.109375 C 19.9375 -29.835938 18.394531 -30.203125 16.40625 -30.203125 C 15.65625 -30.203125 14.863281 -30.078125 14.03125 -29.828125 C 13.195312 -29.578125 12.488281 -29.175781 11.90625 -28.625 C 11.320312 -28.070312 11.03125 -27.335938 11.03125 -26.421875 C 11.03125 -25.492188 11.410156 -24.765625 12.171875 -24.234375 C 12.929688 -23.703125 13.929688 -23.257812 15.171875 -22.90625 C 16.421875 -22.550781 17.789062 -22.210938 19.28125 -21.890625 C 20.769531 -21.566406 22.25 -21.175781 23.71875 -20.71875 C 25.195312 -20.257812 26.554688 -19.628906 27.796875 -18.828125 C 29.046875 -18.023438 30.050781 -16.984375 30.8125 -15.703125 C 31.570312 -14.429688 31.953125 -12.800781 31.953125 -10.8125 C 31.953125 -8.675781 31.523438 -6.863281 30.671875 -5.375 C 29.828125 -3.882812 28.6875 -2.6875 27.25 -1.78125 C 25.8125 -0.875 24.191406 -0.207031 22.390625 0.21875 C 20.597656 0.644531 18.78125 0.859375 16.9375 0.859375 C 14.269531 0.859375 11.773438 0.40625 9.453125 -0.5 C 7.128906 -1.40625 5.25 -2.800781 3.8125 -4.6875 C 2.375 -6.570312 1.632812 -8.988281 1.59375 -11.9375 L 9.6875 -11.9375 C 9.800781 -9.769531 10.601562 -8.175781 12.09375 -7.15625 C 13.582031 -6.144531 15.304688 -5.640625 17.265625 -5.640625 Z M 17.265625 -5.640625 "/></g></g></g><g fill="#26221d" fill-opacity="1"><g transform="translate(1135.20702, 729.518985)"><g><path d="M 18.59375 -28.96875 L 18.59375 0 L 10.59375 0 L 10.59375 -28.96875 L 0.265625 -28.96875 L 0.265625 -36.21875 L 28.921875 -36.21875 L 28.921875 -28.96875 Z M 18.59375 -28.96875 "/></g></g></g><g fill="#26221d" fill-opacity="1"><g transform="translate(1179.576767, 729.518985)"><g><path d="M 31.15625 -18.15625 C 31.15625 -20.039062 30.65625 -21.789062 29.65625 -23.40625 C 28.664062 -25.019531 27.363281 -26.320312 25.75 -27.3125 C 24.132812 -28.3125 22.382812 -28.8125 20.5 -28.8125 C 18.65625 -28.8125 16.914062 -28.3125 15.28125 -27.3125 C 13.65625 -26.320312 12.34375 -25.019531 11.34375 -23.40625 C 10.351562 -21.789062 9.859375 -20.039062 9.859375 -18.15625 C 9.859375 -16.3125 10.351562 -14.570312 11.34375 -12.9375 C 12.34375 -11.3125 13.65625 -9.988281 15.28125 -8.96875 C 16.914062 -7.957031 18.65625 -7.453125 20.5 -7.453125 C 22.382812 -7.453125 24.132812 -7.957031 25.75 -8.96875 C 27.363281 -9.988281 28.664062 -11.3125 29.65625 -12.9375 C 30.65625 -14.570312 31.15625 -16.3125 31.15625 -18.15625 Z M 39.15625 -18.109375 C 39.15625 -15.617188 38.65625 -13.242188 37.65625 -10.984375 C 36.664062 -8.734375 35.304688 -6.75 33.578125 -5.03125 C 31.859375 -3.3125 29.878906 -1.953125 27.640625 -0.953125 C 25.410156 0.0351562 23.03125 0.53125 20.5 0.53125 C 18.019531 0.53125 15.648438 0.0351562 13.390625 -0.953125 C 11.140625 -1.953125 9.148438 -3.3125 7.421875 -5.03125 C 5.703125 -6.75 4.34375 -8.734375 3.34375 -10.984375 C 2.351562 -13.242188 1.859375 -15.617188 1.859375 -18.109375 C 1.859375 -20.628906 2.351562 -23.007812 3.34375 -25.25 C 4.34375 -27.488281 5.703125 -29.46875 7.421875 -31.1875 C 9.148438 -32.90625 11.140625 -34.257812 13.390625 -35.25 C 15.648438 -36.25 18.019531 -36.75 20.5 -36.75 C 23.03125 -36.75 25.410156 -36.25 27.640625 -35.25 C 29.878906 -34.257812 31.859375 -32.90625 33.578125 -31.1875 C 35.304688 -29.46875 36.664062 -27.488281 37.65625 -25.25 C 38.65625 -23.007812 39.15625 -20.628906 39.15625 -18.109375 Z M 39.15625 -18.109375 "/></g></g></g><g fill="#26221d" fill-opacity="1"><g transform="translate(1235.770549, 729.518985)"><g><path d="M 11.1875 -12.9375 L 11.1875 0 L 3.203125 0 L 3.203125 -36.21875 L 16.78125 -36.21875 C 18.726562 -36.21875 20.546875 -35.726562 22.234375 -34.75 C 23.921875 -33.78125 25.28125 -32.425781 26.3125 -30.6875 C 27.34375 -28.945312 27.859375 -26.921875 27.859375 -24.609375 C 27.859375 -22.585938 27.484375 -20.796875 26.734375 -19.234375 C 25.992188 -17.671875 25 -16.390625 23.75 -15.390625 C 22.507812 -14.398438 21.128906 -13.707031 19.609375 -13.3125 L 29.984375 0 L 19.875 0 L 11.234375 -12.9375 Z M 15.453125 -29.9375 L 11.1875 -29.9375 L 11.1875 -19.234375 L 15.453125 -19.234375 C 16.617188 -19.234375 17.707031 -19.691406 18.71875 -20.609375 C 19.726562 -21.535156 20.234375 -22.867188 20.234375 -24.609375 C 20.234375 -26.273438 19.726562 -27.578125 18.71875 -28.515625 C 17.707031 -29.460938 16.617188 -29.9375 15.453125 -29.9375 Z M 15.453125 -29.9375 "/></g></g></g><g fill="#26221d" fill-opacity="1"><g transform="translate(1280.300056, 729.518985)"><g><path d="M 11.1875 0 L 3.203125 0 L 3.203125 -36.21875 L 11.1875 -36.21875 Z M 11.1875 0 "/></g></g></g><g fill="#26221d" fill-opacity="1"><g transform="translate(1309.863071, 729.518985)"><g><path d="M 31.640625 0 L 23.65625 0 L 11.1875 -22.578125 L 11.1875 0 L 3.203125 0 L 3.203125 -36.21875 L 11.1875 -36.21875 L 23.65625 -13.640625 L 23.65625 -36.21875 L 31.640625 -36.21875 Z M 31.640625 0 "/></g></g></g><g fill="#26221d" fill-opacity="1"><g transform="translate(1359.878509, 729.518985)"><g><path d="M 21.3125 -29.296875 C 19.394531 -29.296875 17.632812 -28.78125 16.03125 -27.75 C 14.4375 -26.71875 13.160156 -25.347656 12.203125 -23.640625 C 11.242188 -21.941406 10.765625 -20.0625 10.765625 -18 C 10.765625 -15.976562 11.242188 -14.101562 12.203125 -12.375 C 13.160156 -10.65625 14.4375 -9.28125 16.03125 -8.25 C 17.632812 -7.226562 19.394531 -6.71875 21.3125 -6.71875 C 22.476562 -6.71875 23.707031 -6.882812 25 -7.21875 C 26.300781 -7.550781 27.507812 -8.195312 28.625 -9.15625 C 29.75 -10.113281 30.628906 -11.5 31.265625 -13.3125 L 22.046875 -13.3125 L 22.046875 -19.328125 L 39.890625 -19.328125 L 39.890625 -18.109375 C 39.890625 -15.554688 39.410156 -13.148438 38.453125 -10.890625 C 37.492188 -8.640625 36.160156 -6.648438 34.453125 -4.921875 C 32.753906 -3.203125 30.785156 -1.863281 28.546875 -0.90625 C 26.304688 0.0507812 23.894531 0.53125 21.3125 0.53125 C 18.75 0.53125 16.335938 0.046875 14.078125 -0.921875 C 11.828125 -1.898438 9.847656 -3.242188 8.140625 -4.953125 C 6.441406 -6.660156 5.101562 -8.640625 4.125 -10.890625 C 3.144531 -13.148438 2.65625 -15.554688 2.65625 -18.109375 C 2.65625 -20.671875 3.144531 -23.078125 4.125 -25.328125 C 5.101562 -27.578125 6.441406 -29.554688 8.140625 -31.265625 C 9.847656 -32.972656 11.828125 -34.3125 14.078125 -35.28125 C 16.335938 -36.257812 18.75 -36.75 21.3125 -36.75 C 23.96875 -36.75 26.484375 -36.207031 28.859375 -35.125 C 31.242188 -34.039062 33.320312 -32.546875 35.09375 -30.640625 C 36.875 -28.742188 38.171875 -26.535156 38.984375 -24.015625 L 30.203125 -24.015625 C 29.316406 -25.941406 28.054688 -27.300781 26.421875 -28.09375 C 24.785156 -28.894531 23.082031 -29.296875 21.3125 -29.296875 Z M 21.3125 -29.296875 "/></g></g></g><g fill="#26221d" fill-opacity="1"><g transform="translate(1416.817988, 729.518985)"><g/></g></g><g fill="#26221d" fill-opacity="1"><g transform="translate(1445.315696, 729.518985)"><g><path d="M 23.125 -36.21875 L 31.640625 -36.21875 L 31.640625 0 L 23.125 0 L 23.125 -14.546875 L 11.1875 -14.546875 L 11.1875 0 L 3.203125 0 L 3.203125 -36.21875 L 11.1875 -36.21875 L 11.1875 -21.78125 L 23.125 -21.78125 Z M 23.125 -36.21875 "/></g></g></g><g fill="#26221d" fill-opacity="1"><g transform="translate(1495.331133, 729.518985)"><g><path d="M 31.15625 -18.15625 C 31.15625 -20.039062 30.65625 -21.789062 29.65625 -23.40625 C 28.664062 -25.019531 27.363281 -26.320312 25.75 -27.3125 C 24.132812 -28.3125 22.382812 -28.8125 20.5 -28.8125 C 18.65625 -28.8125 16.914062 -28.3125 15.28125 -27.3125 C 13.65625 -26.320312 12.34375 -25.019531 11.34375 -23.40625 C 10.351562 -21.789062 9.859375 -20.039062 9.859375 -18.15625 C 9.859375 -16.3125 10.351562 -14.570312 11.34375 -12.9375 C 12.34375 -11.3125 13.65625 -9.988281 15.28125 -8.96875 C 16.914062 -7.957031 18.65625 -7.453125 20.5 -7.453125 C 22.382812 -7.453125 24.132812 -7.957031 25.75 -8.96875 C 27.363281 -9.988281 28.664062 -11.3125 29.65625 -12.9375 C 30.65625 -14.570312 31.15625 -16.3125 31.15625 -18.15625 Z M 39.15625 -18.109375 C 39.15625 -15.617188 38.65625 -13.242188 37.65625 -10.984375 C 36.664062 -8.734375 35.304688 -6.75 33.578125 -5.03125 C 31.859375 -3.3125 29.878906 -1.953125 27.640625 -0.953125 C 25.410156 0.0351562 23.03125 0.53125 20.5 0.53125 C 18.019531 0.53125 15.648438 0.0351562 13.390625 -0.953125 C 11.140625 -1.953125 9.148438 -3.3125 7.421875 -5.03125 C 5.703125 -6.75 4.34375 -8.734375 3.34375 -10.984375 C 2.351562 -13.242188 1.859375 -15.617188 1.859375 -18.109375 C 1.859375 -20.628906 2.351562 -23.007812 3.34375 -25.25 C 4.34375 -27.488281 5.703125 -29.46875 7.421875 -31.1875 C 9.148438 -32.90625 11.140625 -34.257812 13.390625 -35.25 C 15.648438 -36.25 18.019531 -36.75 20.5 -36.75 C 23.03125 -36.75 25.410156 -36.25 27.640625 -35.25 C 29.878906 -34.257812 31.859375 -32.90625 33.578125 -31.1875 C 35.304688 -29.46875 36.664062 -27.488281 37.65625 -25.25 C 38.65625 -23.007812 39.15625 -20.628906 39.15625 -18.109375 Z M 39.15625 -18.109375 "/></g></g></g><g fill="#26221d" fill-opacity="1"><g transform="translate(1551.524915, 729.518985)"><g><path d="M 11.1875 -12.9375 L 11.1875 0 L 3.203125 0 L 3.203125 -36.21875 L 16.78125 -36.21875 C 18.726562 -36.21875 20.546875 -35.726562 22.234375 -34.75 C 23.921875 -33.78125 25.28125 -32.425781 26.3125 -30.6875 C 27.34375 -28.945312 27.859375 -26.921875 27.859375 -24.609375 C 27.859375 -22.160156 27.34375 -20.066406 26.3125 -18.328125 C 25.28125 -16.585938 23.921875 -15.253906 22.234375 -14.328125 C 20.546875 -13.398438 18.726562 -12.9375 16.78125 -12.9375 Z M 15.453125 -29.9375 L 11.1875 -29.9375 L 11.1875 -19.234375 L 15.453125 -19.234375 C 16.617188 -19.234375 17.707031 -19.691406 18.71875 -20.609375 C 19.726562 -21.535156 20.234375 -22.867188 20.234375 -24.609375 C 20.234375 -26.273438 19.726562 -27.578125 18.71875 -28.515625 C 17.707031 -29.460938 16.617188 -29.9375 15.453125 -29.9375 Z M 15.453125 -29.9375 "/></g></g></g><g fill="#26221d" fill-opacity="1"><g transform="translate(1595.362008, 729.518985)"><g><path d="M 24.1875 -7.25 L 24.1875 0 L 3.203125 0 L 3.203125 -36.21875 L 24.1875 -36.21875 L 24.1875 -28.96875 L 11.1875 -28.96875 L 11.1875 -21.78125 L 23.65625 -21.78125 L 23.65625 -14.546875 L 11.1875 -14.546875 L 11.1875 -7.25 Z M 24.1875 -7.25 "/></g></g></g></svg>