<svg xmlns="http://www.w3.org/2000/svg" xmlns:xlink="http://www.w3.org/1999/xlink" width="2560" zoomAndPan="magnify" viewBox="0 0 1920 1079.999946" height="1440" preserveAspectRatio="xMidYMid meet" version="1.0"><defs><g/><clipPath id="ad6979868c"><path d="M 719.242188 337.058594 L 1022.992188 337.058594 L 1022.992188 527 L 719.242188 527 Z M 719.242188 337.058594 " clip-rule="nonzero"/></clipPath></defs><g clip-path="url(#ad6979868c)"><path fill="#bfe063" d="M 894.417969 517.714844 C 894.417969 517.714844 836.632812 519.566406 782.546875 473.089844 C 728.464844 426.617188 720.132812 338.601562 719.519531 339.21875 C 718.902344 339.835938 801.363281 323.28125 861.71875 378.1875 C 922.074219 433.09375 894.417969 517.714844 894.417969 517.714844 Z M 1006.59375 459.210938 C 1023.867188 424.765625 1022.429688 380.757812 1022.429688 380.757812 C 1022.429688 380.757812 966.804688 380.34375 935.957031 418.492188 C 896.0625 467.640625 912.511719 526.042969 912.511719 526.042969 C 912.511719 526.042969 981.609375 508.976562 1006.59375 459.210938 Z M 1006.59375 459.210938 " fill-opacity="1" fill-rule="nonzero"/></g><path fill="#008000" d="M 967.933594 431.035156 C 965.980469 428.980469 962.691406 428.980469 960.632812 430.933594 C 928.039062 463.015625 912 501.160156 904.183594 540.027344 C 895.546875 496.019531 871.386719 429.1875 803.625 394.019531 C 801.054688 392.683594 797.96875 393.710938 796.738281 396.179688 C 795.398438 398.648438 796.429688 401.835938 798.894531 403.070312 C 893.492188 452.21875 898.425781 567.480469 898.632812 581.363281 C 897.605469 594.417969 897.296875 607.273438 897.191406 619.816406 C 897.191406 622.695312 899.457031 624.957031 902.335938 624.957031 C 905.109375 624.957031 907.476562 622.695312 907.476562 619.816406 C 907.578125 608.09375 907.886719 596.167969 908.710938 584.035156 C 908.8125 583.625 908.914062 583.210938 908.914062 582.800781 L 908.914062 581.667969 C 912.820312 531.390625 926.085938 479.15625 967.832031 438.132812 C 969.886719 436.28125 969.886719 433.09375 967.933594 431.035156 Z M 967.933594 431.035156 " fill-opacity="1" fill-rule="nonzero"/><g fill="#008000" fill-opacity="1"><g transform="translate(204.200055, 620.333819)"><g><path d="M 58.734375 -40.6875 C 63.515625 -39.5625 67.226562 -37.257812 69.875 -33.78125 C 72.53125 -30.3125 73.859375 -26.300781 73.859375 -21.75 C 73.859375 -14.789062 71.5625 -9.425781 66.96875 -5.65625 C 62.375 -1.882812 55.78125 0 47.1875 0 L 5.609375 0 L 5.609375 -79.34375 L 46.0625 -79.34375 C 54.132812 -79.34375 60.484375 -77.585938 65.109375 -74.078125 C 69.742188 -70.566406 72.0625 -65.453125 72.0625 -58.734375 C 72.0625 -54.097656 70.847656 -50.191406 68.421875 -47.015625 C 65.992188 -43.835938 62.765625 -41.726562 58.734375 -40.6875 Z M 30.484375 -48.421875 L 40.125 -48.421875 C 42.363281 -48.421875 44.023438 -48.867188 45.109375 -49.765625 C 46.191406 -50.660156 46.734375 -52.039062 46.734375 -53.90625 C 46.734375 -55.851562 46.191406 -57.289062 45.109375 -58.21875 C 44.023438 -59.15625 42.363281 -59.625 40.125 -59.625 L 30.484375 -59.625 Z M 41.8125 -19.953125 C 44.050781 -19.953125 45.710938 -20.378906 46.796875 -21.234375 C 47.878906 -22.097656 48.421875 -23.5 48.421875 -25.4375 C 48.421875 -29.25 46.21875 -31.15625 41.8125 -31.15625 L 30.484375 -31.15625 L 30.484375 -19.953125 Z M 41.8125 -19.953125 "/></g></g></g><g fill="#008000" fill-opacity="1"><g transform="translate(303.604331, 620.333819)"><g><path d="M 45.5 0 L 30.59375 -28.46875 L 30.484375 -28.46875 L 30.484375 0 L 5.609375 0 L 5.609375 -79.34375 L 42.59375 -79.34375 C 49.019531 -79.34375 54.507812 -78.203125 59.0625 -75.921875 C 63.625 -73.648438 67.039062 -70.550781 69.3125 -66.625 C 71.59375 -62.707031 72.734375 -58.28125 72.734375 -53.34375 C 72.734375 -48.039062 71.257812 -43.332031 68.3125 -39.21875 C 65.363281 -35.113281 61.125 -32.164062 55.59375 -30.375 L 72.84375 0 Z M 30.484375 -45.0625 L 40.34375 -45.0625 C 42.738281 -45.0625 44.53125 -45.601562 45.71875 -46.6875 C 46.914062 -47.769531 47.515625 -49.46875 47.515625 -51.78125 C 47.515625 -53.875 46.898438 -55.515625 45.671875 -56.703125 C 44.441406 -57.898438 42.664062 -58.5 40.34375 -58.5 L 30.484375 -58.5 Z M 30.484375 -45.0625 "/></g></g></g><g fill="#008000" fill-opacity="1"><g transform="translate(401.439695, 620.333819)"><g><path d="M 30.484375 -59.515625 L 30.484375 -49.765625 L 55.140625 -49.765625 L 55.140625 -31.046875 L 30.484375 -31.046875 L 30.484375 -19.84375 L 58.5 -19.84375 L 58.5 0 L 5.609375 0 L 5.609375 -79.34375 L 58.5 -79.34375 L 58.5 -59.515625 Z M 30.484375 -59.515625 "/></g></g></g><g fill="#008000" fill-opacity="1"><g transform="translate(486.499667, 620.333819)"><g><path d="M 56.484375 -12 L 30.03125 -12 L 26.109375 0 L 0 0 L 29.03125 -79.34375 L 57.71875 -79.34375 L 86.640625 0 L 60.40625 0 Z M 50.4375 -30.703125 L 43.265625 -52.78125 L 36.09375 -30.703125 Z M 50.4375 -30.703125 "/></g></g></g><g fill="#008000" fill-opacity="1"><g transform="translate(595.877708, 620.333819)"><g><path d="M 3.359375 -39.78125 C 3.359375 -47.632812 4.945312 -54.625 8.125 -60.75 C 11.300781 -66.875 15.835938 -71.632812 21.734375 -75.03125 C 27.640625 -78.4375 34.59375 -80.140625 42.59375 -80.140625 C 49.46875 -80.140625 55.613281 -78.847656 61.03125 -76.265625 C 66.445312 -73.691406 70.851562 -70.050781 74.25 -65.34375 C 77.644531 -60.632812 79.90625 -55.140625 81.03125 -48.859375 L 54.8125 -48.859375 C 53.613281 -51.472656 51.910156 -53.507812 49.703125 -54.96875 C 47.503906 -56.425781 44.984375 -57.15625 42.140625 -57.15625 C 37.953125 -57.15625 34.644531 -55.585938 32.21875 -52.453125 C 29.789062 -49.316406 28.578125 -45.09375 28.578125 -39.78125 C 28.578125 -34.476562 29.789062 -30.257812 32.21875 -27.125 C 34.644531 -23.988281 37.953125 -22.421875 42.140625 -22.421875 C 44.984375 -22.421875 47.503906 -23.144531 49.703125 -24.59375 C 51.910156 -26.050781 53.613281 -28.085938 54.8125 -30.703125 L 81.03125 -30.703125 C 79.90625 -24.429688 77.644531 -18.941406 74.25 -14.234375 C 70.851562 -9.523438 66.445312 -5.878906 61.03125 -3.296875 C 55.613281 -0.722656 49.46875 0.5625 42.59375 0.5625 C 34.59375 0.5625 27.640625 -1.132812 21.734375 -4.53125 C 15.835938 -7.9375 11.300781 -12.703125 8.125 -18.828125 C 4.945312 -24.953125 3.359375 -31.9375 3.359375 -39.78125 Z M 3.359375 -39.78125 "/></g></g></g><g fill="#008000" fill-opacity="1"><g transform="translate(703.014458, 620.333819)"><g><path d="M 79.015625 -79.34375 L 79.015625 0 L 54.140625 0 L 54.140625 -30.9375 L 30.484375 -30.9375 L 30.484375 0 L 5.609375 0 L 5.609375 -79.34375 L 30.484375 -79.34375 L 30.484375 -50.765625 L 54.140625 -50.765625 L 54.140625 -79.34375 Z M 79.015625 -79.34375 "/></g></g></g><g fill="#008000" fill-opacity="1"><g transform="translate(810.375322, 620.333819)"><g><path d="M 61.640625 -79.34375 L 61.640625 -59.625 L 30.484375 -59.625 L 30.484375 -48.640625 L 52.90625 -48.640625 L 52.90625 -29.921875 L 30.484375 -29.921875 L 30.484375 0 L 5.609375 0 L 5.609375 -79.34375 Z M 61.640625 -79.34375 "/></g></g></g><g fill="#008000" fill-opacity="1"><g transform="translate(897.564514, 620.333819)"><g/></g></g><g fill="#008000" fill-opacity="1"><g transform="translate(939.367421, 620.333819)"><g><path d="M 56.15625 0 L 41.578125 -20.625 L 29.484375 0 L 1.125 0 L 27.234375 -40.90625 L 0 -79.34375 L 29.484375 -79.34375 L 43.484375 -59.515625 L 55.140625 -79.34375 L 83.5 -79.34375 L 57.828125 -39.234375 L 85.625 0 Z M 56.15625 0 "/></g></g></g><g fill="#242424" fill-opacity="1"><g transform="translate(1047.746765, 620.333819)"><g/></g></g><g fill="#242424" fill-opacity="1"><g transform="translate(1089.561203, 620.333819)"><g><path d="M 87.421875 -79.34375 L 73.40625 0 L 48.53125 0 L 54.015625 -30.9375 L 30.375 -30.9375 L 24.875 0 L 0 0 L 14.015625 -79.34375 L 38.890625 -79.34375 L 33.84375 -50.765625 L 57.5 -50.765625 L 62.546875 -79.34375 Z M 87.421875 -79.34375 "/></g></g></g><g fill="#242424" fill-opacity="1"><g transform="translate(1196.92208, 620.333819)"><g><path d="M 35.421875 -59.625 L 33.734375 -49.765625 L 58.390625 -49.765625 L 55.03125 -31.046875 L 30.375 -31.046875 L 28.359375 -19.84375 L 56.375 -19.84375 L 52.90625 0 L 0 0 L 14.015625 -79.34375 L 66.90625 -79.34375 L 63.4375 -59.625 Z M 35.421875 -59.625 "/></g></g></g><g fill="#242424" fill-opacity="1"><g transform="translate(1281.982052, 620.333819)"><g><path d="M 53.015625 -12 L 26.5625 -12 L 20.515625 0 L -5.609375 0 L 37.4375 -79.34375 L 66.125 -79.34375 L 81.03125 0 L 54.8125 0 Z M 50.328125 -30.703125 L 47.078125 -52.78125 L 35.984375 -30.703125 Z M 50.328125 -30.703125 "/></g></g></g><g fill="#242424" fill-opacity="1"><g transform="translate(1391.360093, 620.333819)"><g><path d="M 28.25 -18.828125 L 52.234375 -18.828125 L 48.859375 0 L 0 0 L 14.015625 -79.34375 L 38.890625 -79.34375 Z M 28.25 -18.828125 "/></g></g></g><g fill="#242424" fill-opacity="1"><g transform="translate(1470.816825, 620.333819)"><g><path d="M 76.328125 -79.34375 L 72.84375 -59.625 L 51.78125 -59.625 L 41.25 0 L 16.359375 0 L 26.90625 -59.625 L 6.046875 -59.625 L 9.53125 -79.34375 Z M 76.328125 -79.34375 "/></g></g></g><g fill="#242424" fill-opacity="1"><g transform="translate(1562.600682, 620.333819)"><g><path d="M 87.421875 -79.34375 L 73.40625 0 L 48.53125 0 L 54.015625 -30.9375 L 30.375 -30.9375 L 24.875 0 L 0 0 L 14.015625 -79.34375 L 38.890625 -79.34375 L 33.84375 -50.765625 L 57.5 -50.765625 L 62.546875 -79.34375 Z M 87.421875 -79.34375 "/></g></g></g></svg>