<svg xmlns="http://www.w3.org/2000/svg" xmlns:xlink="http://www.w3.org/1999/xlink" width="2560" zoomAndPan="magnify" viewBox="0 0 1920 1079.999946" height="1440" preserveAspectRatio="xMidYMid meet" version="1.0"><defs><g/><clipPath id="db78b1804a"><path d="M 1081.121094 210.332031 L 1384.871094 210.332031 L 1384.871094 400 L 1081.121094 400 Z M 1081.121094 210.332031 " clip-rule="nonzero"/></clipPath><clipPath id="0325e1997e"><path d="M 1158 266 L 1332 266 L 1332 498.332031 L 1158 498.332031 Z M 1158 266 " clip-rule="nonzero"/></clipPath></defs><g clip-path="url(#db78b1804a)"><path fill="#bfe063" d="M 1256.292969 390.988281 C 1256.292969 390.988281 1198.507812 392.839844 1144.425781 346.363281 C 1090.339844 299.886719 1082.011719 211.871094 1081.394531 212.488281 C 1080.777344 213.105469 1163.242188 196.550781 1223.597656 251.457031 C 1283.953125 306.367188 1256.292969 390.988281 1256.292969 390.988281 Z M 1368.472656 332.480469 C 1385.746094 298.035156 1384.308594 254.027344 1384.308594 254.027344 C 1384.308594 254.027344 1328.679688 253.617188 1297.835938 291.765625 C 1257.941406 340.914062 1274.390625 399.316406 1274.390625 399.316406 C 1274.390625 399.316406 1343.488281 382.246094 1368.472656 332.480469 Z M 1368.472656 332.480469 " fill-opacity="1" fill-rule="nonzero"/></g><g clip-path="url(#0325e1997e)"><path fill="#008000" d="M 1329.8125 304.308594 C 1327.859375 302.253906 1324.566406 302.253906 1322.511719 304.207031 C 1289.917969 336.285156 1273.878906 374.433594 1266.0625 413.300781 C 1257.425781 369.292969 1233.261719 302.457031 1165.503906 267.292969 C 1162.933594 265.957031 1159.847656 266.984375 1158.613281 269.453125 C 1157.277344 271.921875 1158.304688 275.109375 1160.773438 276.339844 C 1255.371094 325.488281 1260.304688 440.753906 1260.511719 454.632812 C 1259.480469 467.691406 1259.171875 480.542969 1259.070312 493.089844 C 1259.070312 495.96875 1261.332031 498.230469 1264.210938 498.230469 C 1266.988281 498.230469 1269.351562 495.96875 1269.351562 493.089844 C 1269.457031 481.367188 1269.765625 469.441406 1270.585938 457.308594 C 1270.691406 456.894531 1270.792969 456.484375 1270.792969 456.074219 L 1270.792969 454.941406 C 1274.699219 404.664062 1287.964844 352.429688 1329.710938 311.402344 C 1331.765625 309.554688 1331.765625 306.367188 1329.8125 304.308594 Z M 1329.8125 304.308594 " fill-opacity="1" fill-rule="nonzero"/></g><g fill="#008000" fill-opacity="1"><g transform="translate(482.053636, 495.158427)"><g><path d="M 66.0625 -45.765625 C 71.4375 -44.503906 75.613281 -41.914062 78.59375 -38 C 81.582031 -34.09375 83.078125 -29.578125 83.078125 -24.453125 C 83.078125 -16.640625 80.488281 -10.609375 75.3125 -6.359375 C 70.144531 -2.117188 62.734375 0 53.078125 0 L 6.296875 0 L 6.296875 -89.25 L 51.8125 -89.25 C 60.882812 -89.25 68.023438 -87.273438 73.234375 -83.328125 C 78.453125 -79.378906 81.0625 -73.625 81.0625 -66.0625 C 81.0625 -60.84375 79.691406 -56.445312 76.953125 -52.875 C 74.222656 -49.3125 70.59375 -46.941406 66.0625 -45.765625 Z M 34.28125 -54.453125 L 45.125 -54.453125 C 47.644531 -54.453125 49.515625 -54.957031 50.734375 -55.96875 C 51.953125 -56.976562 52.5625 -58.535156 52.5625 -60.640625 C 52.5625 -62.816406 51.953125 -64.429688 50.734375 -65.484375 C 49.515625 -66.535156 47.644531 -67.0625 45.125 -67.0625 L 34.28125 -67.0625 Z M 47.015625 -22.4375 C 49.535156 -22.4375 51.40625 -22.921875 52.625 -23.890625 C 53.84375 -24.859375 54.453125 -26.429688 54.453125 -28.609375 C 54.453125 -32.898438 51.972656 -35.046875 47.015625 -35.046875 L 34.28125 -35.046875 L 34.28125 -22.4375 Z M 47.015625 -22.4375 "/></g></g></g><g fill="#008000" fill-opacity="1"><g transform="translate(593.867934, 495.158427)"><g><path d="M 51.1875 0 L 34.421875 -32.015625 L 34.28125 -32.015625 L 34.28125 0 L 6.296875 0 L 6.296875 -89.25 L 47.90625 -89.25 C 55.132812 -89.25 61.3125 -87.96875 66.4375 -85.40625 C 71.5625 -82.84375 75.40625 -79.351562 77.96875 -74.9375 C 80.53125 -70.53125 81.8125 -65.550781 81.8125 -60 C 81.8125 -54.039062 80.148438 -48.75 76.828125 -44.125 C 73.515625 -39.5 68.75 -36.175781 62.53125 -34.15625 L 81.9375 0 Z M 34.28125 -50.671875 L 45.375 -50.671875 C 48.070312 -50.671875 50.09375 -51.28125 51.4375 -52.5 C 52.78125 -53.71875 53.453125 -55.628906 53.453125 -58.234375 C 53.453125 -60.585938 52.757812 -62.4375 51.375 -63.78125 C 49.988281 -65.125 47.988281 -65.796875 45.375 -65.796875 L 34.28125 -65.796875 Z M 34.28125 -50.671875 "/></g></g></g><g fill="#008000" fill-opacity="1"><g transform="translate(703.917452, 495.158427)"><g><path d="M 34.28125 -66.9375 L 34.28125 -55.96875 L 62.015625 -55.96875 L 62.015625 -34.921875 L 34.28125 -34.921875 L 34.28125 -22.3125 L 65.796875 -22.3125 L 65.796875 0 L 6.296875 0 L 6.296875 -89.25 L 65.796875 -89.25 L 65.796875 -66.9375 Z M 34.28125 -66.9375 "/></g></g></g><g fill="#008000" fill-opacity="1"><g transform="translate(799.596647, 495.158427)"><g><path d="M 63.53125 -13.484375 L 33.78125 -13.484375 L 29.375 0 L 0 0 L 32.65625 -89.25 L 64.921875 -89.25 L 97.453125 0 L 67.953125 0 Z M 56.734375 -34.546875 L 48.65625 -59.375 L 40.59375 -34.546875 Z M 56.734375 -34.546875 "/></g></g></g><g fill="#008000" fill-opacity="1"><g transform="translate(922.629875, 495.158427)"><g><path d="M 3.78125 -44.75 C 3.78125 -53.570312 5.566406 -61.425781 9.140625 -68.3125 C 12.710938 -75.207031 17.816406 -80.566406 24.453125 -84.390625 C 31.097656 -88.222656 38.914062 -90.140625 47.90625 -90.140625 C 55.632812 -90.140625 62.546875 -88.6875 68.640625 -85.78125 C 74.734375 -82.882812 79.691406 -78.785156 83.515625 -73.484375 C 87.335938 -68.191406 89.878906 -62.019531 91.140625 -54.96875 L 61.640625 -54.96875 C 60.296875 -57.90625 58.382812 -60.191406 55.90625 -61.828125 C 53.425781 -63.472656 50.59375 -64.296875 47.40625 -64.296875 C 42.695312 -64.296875 38.972656 -62.53125 36.234375 -59 C 33.503906 -55.46875 32.140625 -50.71875 32.140625 -44.75 C 32.140625 -38.78125 33.503906 -34.03125 36.234375 -30.5 C 38.972656 -26.976562 42.695312 -25.21875 47.40625 -25.21875 C 50.59375 -25.21875 53.425781 -26.035156 55.90625 -27.671875 C 58.382812 -29.304688 60.296875 -31.597656 61.640625 -34.546875 L 91.140625 -34.546875 C 89.878906 -27.484375 87.335938 -21.300781 83.515625 -16 C 79.691406 -10.707031 74.734375 -6.613281 68.640625 -3.71875 C 62.546875 -0.820312 55.632812 0.625 47.90625 0.625 C 38.914062 0.625 31.097656 -1.285156 24.453125 -5.109375 C 17.816406 -8.929688 12.710938 -14.285156 9.140625 -21.171875 C 5.566406 -28.066406 3.78125 -35.925781 3.78125 -44.75 Z M 3.78125 -44.75 "/></g></g></g><g fill="#008000" fill-opacity="1"><g transform="translate(1043.142001, 495.158427)"><g><path d="M 88.875 -89.25 L 88.875 0 L 60.890625 0 L 60.890625 -34.796875 L 34.28125 -34.796875 L 34.28125 0 L 6.296875 0 L 6.296875 -89.25 L 34.28125 -89.25 L 34.28125 -57.109375 L 60.890625 -57.109375 L 60.890625 -89.25 Z M 88.875 -89.25 "/></g></g></g><g fill="#008000" fill-opacity="1"><g transform="translate(1163.906219, 495.158427)"><g><path d="M 69.328125 -89.25 L 69.328125 -67.0625 L 34.28125 -67.0625 L 34.28125 -54.71875 L 59.5 -54.71875 L 59.5 -33.65625 L 34.28125 -33.65625 L 34.28125 0 L 6.296875 0 L 6.296875 -89.25 Z M 69.328125 -89.25 "/></g></g></g><g fill="#008000" fill-opacity="1"><g transform="translate(1261.980455, 495.158427)"><g/></g></g><g fill="#008000" fill-opacity="1"><g transform="translate(1309.002202, 495.158427)"><g><path d="M 63.15625 0 L 46.765625 -23.203125 L 33.15625 0 L 1.265625 0 L 30.640625 -46.015625 L 0 -89.25 L 33.15625 -89.25 L 48.90625 -66.9375 L 62.015625 -89.25 L 93.921875 -89.25 L 65.046875 -44.125 L 96.3125 0 Z M 63.15625 0 "/></g></g></g><g fill="#242424" fill-opacity="1"><g transform="translate(1430.912051, 495.158427)"><g/></g></g><g fill="#242424" fill-opacity="1"><g transform="translate(482.053636, 671.599545)"><g/></g></g><g fill="#242424" fill-opacity="1"><g transform="translate(529.075398, 671.599545)"><g/></g></g><g fill="#242424" fill-opacity="1"><g transform="translate(576.097161, 671.599545)"><g/></g></g><g fill="#242424" fill-opacity="1"><g transform="translate(623.127327, 671.599545)"><g><path d="M 98.328125 -89.25 L 82.578125 0 L 54.578125 0 L 60.765625 -34.796875 L 34.15625 -34.796875 L 27.984375 0 L 0 0 L 15.75 -89.25 L 43.75 -89.25 L 38.078125 -57.109375 L 64.671875 -57.109375 L 70.34375 -89.25 Z M 98.328125 -89.25 "/></g></g></g><g fill="#242424" fill-opacity="1"><g transform="translate(743.89156, 671.599545)"><g><path d="M 39.828125 -67.0625 L 37.9375 -55.96875 L 65.671875 -55.96875 L 61.890625 -34.921875 L 34.15625 -34.921875 L 31.890625 -22.3125 L 63.40625 -22.3125 L 59.5 0 L 0 0 L 15.75 -89.25 L 75.265625 -89.25 L 71.34375 -67.0625 Z M 39.828125 -67.0625 "/></g></g></g><g fill="#242424" fill-opacity="1"><g transform="translate(839.570755, 671.599545)"><g><path d="M 59.625 -13.484375 L 29.875 -13.484375 L 23.0625 0 L -6.296875 0 L 42.109375 -89.25 L 74.375 -89.25 L 91.140625 0 L 61.640625 0 Z M 56.609375 -34.546875 L 52.953125 -59.375 L 40.46875 -34.546875 Z M 56.609375 -34.546875 "/></g></g></g><g fill="#242424" fill-opacity="1"><g transform="translate(962.603983, 671.599545)"><g><path d="M 31.765625 -21.171875 L 58.75 -21.171875 L 54.96875 0 L 0 0 L 15.75 -89.25 L 43.75 -89.25 Z M 31.765625 -21.171875 "/></g></g></g><g fill="#242424" fill-opacity="1"><g transform="translate(1051.980407, 671.599545)"><g><path d="M 85.84375 -89.25 L 81.9375 -67.0625 L 58.234375 -67.0625 L 46.390625 0 L 18.40625 0 L 30.25 -67.0625 L 6.8125 -67.0625 L 10.71875 -89.25 Z M 85.84375 -89.25 "/></g></g></g><g fill="#242424" fill-opacity="1"><g transform="translate(1155.222924, 671.599545)"><g><path d="M 98.328125 -89.25 L 82.578125 0 L 54.578125 0 L 60.765625 -34.796875 L 34.15625 -34.796875 L 27.984375 0 L 0 0 L 15.75 -89.25 L 43.75 -89.25 L 38.078125 -57.109375 L 64.671875 -57.109375 L 70.34375 -89.25 Z M 98.328125 -89.25 "/></g></g></g></svg>