<svg xmlns="http://www.w3.org/2000/svg" xmlns:xlink="http://www.w3.org/1999/xlink" width="2560" zoomAndPan="magnify" viewBox="0 0 1920 1079.999946" height="1440" preserveAspectRatio="xMidYMid meet" version="1.0"><defs><g/><clipPath id="53c4868270"><path d="M 672.222656 268.023438 L 1068 268.023438 L 1068 515 L 672.222656 515 Z M 672.222656 268.023438 " clip-rule="nonzero"/></clipPath><clipPath id="f8248242d1"><path d="M 772 341 L 999 341 L 999 643.914062 L 772 643.914062 Z M 772 341 " clip-rule="nonzero"/></clipPath></defs><g clip-path="url(#53c4868270)"><path fill="#bfe063" d="M 900.851562 503.8125 C 900.851562 503.8125 825.433594 506.226562 754.84375 445.570312 C 684.253906 384.910156 673.382812 270.035156 672.578125 270.839844 C 671.773438 271.644531 779.402344 250.039062 858.179688 321.703125 C 936.953125 393.367188 900.851562 503.8125 900.851562 503.8125 Z M 1047.265625 427.453125 C 1069.8125 382.496094 1067.933594 325.058594 1067.933594 325.058594 C 1067.933594 325.058594 995.328125 324.519531 955.070312 374.308594 C 903 438.457031 924.472656 514.683594 924.472656 514.683594 C 924.472656 514.683594 1014.65625 492.40625 1047.265625 427.453125 Z M 1047.265625 427.453125 " fill-opacity="1" fill-rule="nonzero"/></g><g clip-path="url(#f8248242d1)"><path fill="#008000" d="M 996.804688 390.679688 C 994.257812 387.996094 989.960938 387.996094 987.277344 390.546875 C 944.738281 432.417969 923.800781 482.207031 913.601562 532.933594 C 902.328125 475.496094 870.792969 388.265625 782.355469 342.371094 C 779 340.625 774.972656 341.96875 773.363281 345.1875 C 771.617188 348.410156 772.960938 352.570312 776.183594 354.179688 C 899.644531 418.328125 906.085938 568.765625 906.355469 586.882812 C 905.011719 603.925781 904.609375 620.699219 904.476562 637.074219 C 904.476562 640.828125 907.429688 643.78125 911.1875 643.78125 C 914.808594 643.78125 917.898438 640.828125 917.898438 637.074219 C 918.03125 621.773438 918.433594 606.207031 919.507812 590.371094 C 919.640625 589.835938 919.777344 589.296875 919.777344 588.761719 L 919.777344 587.285156 C 924.875 521.660156 942.1875 453.488281 996.671875 399.941406 C 999.355469 397.527344 999.355469 393.367188 996.804688 390.679688 Z M 996.804688 390.679688 " fill-opacity="1" fill-rule="nonzero"/></g><g fill="#008000" fill-opacity="1"><g transform="translate(0.000048, 637.747218)"><g><path d="M 76.640625 -53.09375 C 82.878906 -51.632812 87.726562 -48.632812 91.1875 -44.09375 C 94.65625 -39.5625 96.390625 -34.320312 96.390625 -28.375 C 96.390625 -19.300781 93.390625 -12.300781 87.390625 -7.375 C 81.390625 -2.457031 72.785156 0 61.578125 0 L 7.3125 0 L 7.3125 -103.5625 L 60.109375 -103.5625 C 70.640625 -103.5625 78.925781 -101.269531 84.96875 -96.6875 C 91.019531 -92.101562 94.046875 -85.421875 94.046875 -76.640625 C 94.046875 -70.597656 92.460938 -65.503906 89.296875 -61.359375 C 86.128906 -57.210938 81.910156 -54.457031 76.640625 -53.09375 Z M 39.78125 -63.1875 L 52.359375 -63.1875 C 55.285156 -63.1875 57.457031 -63.769531 58.875 -64.9375 C 60.289062 -66.113281 61 -67.921875 61 -70.359375 C 61 -72.890625 60.289062 -74.765625 58.875 -75.984375 C 57.457031 -77.203125 55.285156 -77.8125 52.359375 -77.8125 L 39.78125 -77.8125 Z M 54.5625 -26.03125 C 57.476562 -26.03125 59.644531 -26.59375 61.0625 -27.71875 C 62.476562 -28.84375 63.1875 -30.671875 63.1875 -33.203125 C 63.1875 -38.171875 60.3125 -40.65625 54.5625 -40.65625 L 39.78125 -40.65625 L 39.78125 -26.03125 Z M 54.5625 -26.03125 "/></g></g></g><g fill="#008000" fill-opacity="1"><g transform="translate(129.73993, 637.747218)"><g><path d="M 59.390625 0 L 39.9375 -37.15625 L 39.78125 -37.15625 L 39.78125 0 L 7.3125 0 L 7.3125 -103.5625 L 55.578125 -103.5625 C 63.960938 -103.5625 71.128906 -102.070312 77.078125 -99.09375 C 83.023438 -96.125 87.484375 -92.078125 90.453125 -86.953125 C 93.429688 -81.835938 94.921875 -76.0625 94.921875 -69.625 C 94.921875 -62.695312 92.992188 -56.550781 89.140625 -51.1875 C 85.296875 -45.820312 79.765625 -41.972656 72.546875 -39.640625 L 95.078125 0 Z M 39.78125 -58.796875 L 52.65625 -58.796875 C 55.78125 -58.796875 58.117188 -59.503906 59.671875 -60.921875 C 61.234375 -62.335938 62.015625 -64.554688 62.015625 -67.578125 C 62.015625 -70.304688 61.207031 -72.445312 59.59375 -74 C 57.988281 -75.5625 55.675781 -76.34375 52.65625 -76.34375 L 39.78125 -76.34375 Z M 39.78125 -58.796875 "/></g></g></g><g fill="#008000" fill-opacity="1"><g transform="translate(257.432109, 637.747218)"><g><path d="M 39.78125 -77.671875 L 39.78125 -64.9375 L 71.96875 -64.9375 L 71.96875 -40.515625 L 39.78125 -40.515625 L 39.78125 -25.890625 L 76.34375 -25.890625 L 76.34375 0 L 7.3125 0 L 7.3125 -103.5625 L 76.34375 -103.5625 L 76.34375 -77.671875 Z M 39.78125 -77.671875 "/></g></g></g><g fill="#008000" fill-opacity="1"><g transform="translate(368.450178, 637.747218)"><g><path d="M 73.71875 -15.65625 L 39.203125 -15.65625 L 34.078125 0 L 0 0 L 37.875 -103.5625 L 75.328125 -103.5625 L 113.0625 0 L 78.84375 0 Z M 65.8125 -40.078125 L 56.453125 -68.890625 L 47.09375 -40.078125 Z M 65.8125 -40.078125 "/></g></g></g><g fill="#008000" fill-opacity="1"><g transform="translate(511.207559, 637.747218)"><g><path d="M 4.390625 -51.921875 C 4.390625 -62.160156 6.460938 -71.273438 10.609375 -79.265625 C 14.753906 -87.265625 20.675781 -93.484375 28.375 -97.921875 C 36.082031 -102.359375 45.148438 -104.578125 55.578125 -104.578125 C 64.546875 -104.578125 72.566406 -102.894531 79.640625 -99.53125 C 86.710938 -96.164062 92.46875 -91.410156 96.90625 -85.265625 C 101.34375 -79.128906 104.289062 -71.960938 105.75 -63.765625 L 71.53125 -63.765625 C 69.96875 -67.179688 67.742188 -69.835938 64.859375 -71.734375 C 61.984375 -73.640625 58.695312 -74.59375 55 -74.59375 C 49.539062 -74.59375 45.222656 -72.546875 42.046875 -68.453125 C 38.878906 -64.359375 37.296875 -58.847656 37.296875 -51.921875 C 37.296875 -45.003906 38.878906 -39.492188 42.046875 -35.390625 C 45.222656 -31.296875 49.539062 -29.25 55 -29.25 C 58.695312 -29.25 61.984375 -30.195312 64.859375 -32.09375 C 67.742188 -34 69.96875 -36.660156 71.53125 -40.078125 L 105.75 -40.078125 C 104.289062 -31.890625 101.34375 -24.722656 96.90625 -18.578125 C 92.46875 -12.429688 86.710938 -7.675781 79.640625 -4.3125 C 72.566406 -0.945312 64.546875 0.734375 55.578125 0.734375 C 45.148438 0.734375 36.082031 -1.484375 28.375 -5.921875 C 20.675781 -10.359375 14.753906 -16.570312 10.609375 -24.5625 C 6.460938 -32.5625 4.390625 -41.679688 4.390625 -51.921875 Z M 4.390625 -51.921875 "/></g></g></g><g fill="#008000" fill-opacity="1"><g transform="translate(651.039667, 637.747218)"><g><path d="M 103.109375 -103.5625 L 103.109375 0 L 70.640625 0 L 70.640625 -40.375 L 39.78125 -40.375 L 39.78125 0 L 7.3125 0 L 7.3125 -103.5625 L 39.78125 -103.5625 L 39.78125 -66.265625 L 70.640625 -66.265625 L 70.640625 -103.5625 Z M 103.109375 -103.5625 "/></g></g></g><g fill="#008000" fill-opacity="1"><g transform="translate(791.16428, 637.747218)"><g><path d="M 80.453125 -103.5625 L 80.453125 -77.8125 L 39.78125 -77.8125 L 39.78125 -63.484375 L 69.03125 -63.484375 L 69.03125 -39.046875 L 39.78125 -39.046875 L 39.78125 0 L 7.3125 0 L 7.3125 -103.5625 Z M 80.453125 -103.5625 "/></g></g></g><g fill="#008000" fill-opacity="1"><g transform="translate(904.961352, 637.747218)"><g/></g></g><g fill="#008000" fill-opacity="1"><g transform="translate(959.521422, 637.747218)"><g><path d="M 73.28125 0 L 54.265625 -26.90625 L 38.46875 0 L 1.46875 0 L 35.546875 -53.390625 L 0 -103.5625 L 38.46875 -103.5625 L 56.75 -77.671875 L 71.96875 -103.5625 L 108.96875 -103.5625 L 75.46875 -51.1875 L 111.75 0 Z M 73.28125 0 "/></g></g></g><g fill="#242424" fill-opacity="1"><g transform="translate(1100.97533, 637.747218)"><g/></g></g><g fill="#242424" fill-opacity="1"><g transform="translate(1155.55045, 637.747218)"><g><path d="M 114.09375 -103.5625 L 95.796875 0 L 63.328125 0 L 70.5 -40.375 L 39.640625 -40.375 L 32.46875 0 L 0 0 L 18.28125 -103.5625 L 50.75 -103.5625 L 44.171875 -66.265625 L 75.03125 -66.265625 L 81.609375 -103.5625 Z M 114.09375 -103.5625 "/></g></g></g><g fill="#242424" fill-opacity="1"><g transform="translate(1295.675081, 637.747218)"><g><path d="M 46.21875 -77.8125 L 44.03125 -64.9375 L 76.203125 -64.9375 L 71.8125 -40.515625 L 39.640625 -40.515625 L 37 -25.890625 L 73.578125 -25.890625 L 69.03125 0 L 0 0 L 18.28125 -103.5625 L 87.328125 -103.5625 L 82.78125 -77.8125 Z M 46.21875 -77.8125 "/></g></g></g><g fill="#242424" fill-opacity="1"><g transform="translate(1406.69315, 637.747218)"><g><path d="M 69.1875 -15.65625 L 34.671875 -15.65625 L 26.765625 0 L -7.3125 0 L 48.859375 -103.5625 L 86.296875 -103.5625 L 105.75 0 L 71.53125 0 Z M 65.671875 -40.078125 L 61.4375 -68.890625 L 46.953125 -40.078125 Z M 65.671875 -40.078125 "/></g></g></g><g fill="#242424" fill-opacity="1"><g transform="translate(1549.450531, 637.747218)"><g><path d="M 36.859375 -24.578125 L 68.15625 -24.578125 L 63.765625 0 L 0 0 L 18.28125 -103.5625 L 50.75 -103.5625 Z M 36.859375 -24.578125 "/></g></g></g><g fill="#242424" fill-opacity="1"><g transform="translate(1653.155396, 637.747218)"><g><path d="M 99.609375 -103.5625 L 95.078125 -77.8125 L 67.578125 -77.8125 L 53.828125 0 L 21.359375 0 L 35.109375 -77.8125 L 7.890625 -77.8125 L 12.4375 -103.5625 Z M 99.609375 -103.5625 "/></g></g></g><g fill="#242424" fill-opacity="1"><g transform="translate(1772.949305, 637.747218)"><g><path d="M 114.09375 -103.5625 L 95.796875 0 L 63.328125 0 L 70.5 -40.375 L 39.640625 -40.375 L 32.46875 0 L 0 0 L 18.28125 -103.5625 L 50.75 -103.5625 L 44.171875 -66.265625 L 75.03125 -66.265625 L 81.609375 -103.5625 Z M 114.09375 -103.5625 "/></g></g></g><g fill="#26221d" fill-opacity="1"><g transform="translate(47.533546, 780.253031)"><g><path d="M 14.59375 -16.890625 L 14.59375 0 L 4.171875 0 L 4.171875 -47.265625 L 21.890625 -47.265625 C 24.441406 -47.265625 26.816406 -46.628906 29.015625 -45.359375 C 31.222656 -44.085938 33 -42.316406 34.34375 -40.046875 C 35.6875 -37.773438 36.359375 -35.128906 36.359375 -32.109375 C 36.359375 -29.472656 35.867188 -27.132812 34.890625 -25.09375 C 33.921875 -23.050781 32.625 -21.378906 31 -20.078125 C 29.382812 -18.785156 27.578125 -17.882812 25.578125 -17.375 L 39.140625 0 L 25.921875 0 L 14.671875 -16.890625 Z M 20.15625 -39.0625 L 14.59375 -39.0625 L 14.59375 -25.09375 L 20.15625 -25.09375 C 21.6875 -25.09375 23.113281 -25.691406 24.4375 -26.890625 C 25.757812 -28.097656 26.421875 -29.835938 26.421875 -32.109375 C 26.421875 -34.296875 25.757812 -36 24.4375 -37.21875 C 23.113281 -38.445312 21.6875 -39.0625 20.15625 -39.0625 Z M 20.15625 -39.0625 "/></g></g></g><g fill="#26221d" fill-opacity="1"><g transform="translate(105.652305, 780.253031)"><g><path d="M 31.5625 -9.453125 L 31.5625 0 L 4.171875 0 L 4.171875 -47.265625 L 31.5625 -47.265625 L 31.5625 -37.8125 L 14.59375 -37.8125 L 14.59375 -28.4375 L 30.859375 -28.4375 L 30.859375 -18.984375 L 14.59375 -18.984375 L 14.59375 -9.453125 Z M 31.5625 -9.453125 "/></g></g></g><g fill="#26221d" fill-opacity="1"><g transform="translate(161.19898, 780.253031)"><g><path d="M 14.59375 -16.890625 L 14.59375 0 L 4.171875 0 L 4.171875 -47.265625 L 21.890625 -47.265625 C 24.441406 -47.265625 26.816406 -46.628906 29.015625 -45.359375 C 31.222656 -44.085938 33 -42.316406 34.34375 -40.046875 C 35.6875 -37.773438 36.359375 -35.128906 36.359375 -32.109375 C 36.359375 -28.910156 35.6875 -26.175781 34.34375 -23.90625 C 33 -21.632812 31.222656 -19.894531 29.015625 -18.6875 C 26.816406 -17.488281 24.441406 -16.890625 21.890625 -16.890625 Z M 20.15625 -39.0625 L 14.59375 -39.0625 L 14.59375 -25.09375 L 20.15625 -25.09375 C 21.6875 -25.09375 23.113281 -25.691406 24.4375 -26.890625 C 25.757812 -28.097656 26.421875 -29.835938 26.421875 -32.109375 C 26.421875 -34.296875 25.757812 -36 24.4375 -37.21875 C 23.113281 -38.445312 21.6875 -39.0625 20.15625 -39.0625 Z M 20.15625 -39.0625 "/></g></g></g><g fill="#26221d" fill-opacity="1"><g transform="translate(218.414041, 780.253031)"><g><path d="M 29.890625 -18.078125 L 23.90625 -34.890625 L 17.9375 -18.078125 Z M 47.546875 0 L 36.359375 0 L 32.953125 -9.53125 L 14.953125 -9.53125 L 11.546875 0 L 0.34375 0 L 19.53125 -47.265625 L 28.359375 -47.265625 Z M 47.546875 0 "/></g></g></g><g fill="#26221d" fill-opacity="1"><g transform="translate(286.125989, 780.253031)"><g><path d="M 14.59375 0 L 4.171875 0 L 4.171875 -47.265625 L 14.59375 -47.265625 Z M 14.59375 0 "/></g></g></g><g fill="#26221d" fill-opacity="1"><g transform="translate(324.710807, 780.253031)"><g><path d="M 14.59375 -16.890625 L 14.59375 0 L 4.171875 0 L 4.171875 -47.265625 L 21.890625 -47.265625 C 24.441406 -47.265625 26.816406 -46.628906 29.015625 -45.359375 C 31.222656 -44.085938 33 -42.316406 34.34375 -40.046875 C 35.6875 -37.773438 36.359375 -35.128906 36.359375 -32.109375 C 36.359375 -29.472656 35.867188 -27.132812 34.890625 -25.09375 C 33.921875 -23.050781 32.625 -21.378906 31 -20.078125 C 29.382812 -18.785156 27.578125 -17.882812 25.578125 -17.375 L 39.140625 0 L 25.921875 0 L 14.671875 -16.890625 Z M 20.15625 -39.0625 L 14.59375 -39.0625 L 14.59375 -25.09375 L 20.15625 -25.09375 C 21.6875 -25.09375 23.113281 -25.691406 24.4375 -26.890625 C 25.757812 -28.097656 26.421875 -29.835938 26.421875 -32.109375 C 26.421875 -34.296875 25.757812 -36 24.4375 -37.21875 C 23.113281 -38.445312 21.6875 -39.0625 20.15625 -39.0625 Z M 20.15625 -39.0625 "/></g></g></g><g fill="#26221d" fill-opacity="1"><g transform="translate(382.829559, 780.253031)"><g><path d="M 14.59375 0 L 4.171875 0 L 4.171875 -47.265625 L 14.59375 -47.265625 Z M 14.59375 0 "/></g></g></g><g fill="#26221d" fill-opacity="1"><g transform="translate(421.414378, 780.253031)"><g><path d="M 41.296875 0 L 30.859375 0 L 14.59375 -29.46875 L 14.59375 0 L 4.171875 0 L 4.171875 -47.265625 L 14.59375 -47.265625 L 30.859375 -17.796875 L 30.859375 -47.265625 L 41.296875 -47.265625 Z M 41.296875 0 "/></g></g></g><g fill="#26221d" fill-opacity="1"><g transform="translate(486.693253, 780.253031)"><g><path d="M 27.8125 -38.234375 C 25.300781 -38.234375 23.003906 -37.5625 20.921875 -36.21875 C 18.835938 -34.875 17.171875 -33.085938 15.921875 -30.859375 C 14.671875 -28.640625 14.046875 -26.1875 14.046875 -23.5 C 14.046875 -20.851562 14.671875 -18.40625 15.921875 -16.15625 C 17.171875 -13.914062 18.835938 -12.125 20.921875 -10.78125 C 23.003906 -9.4375 25.300781 -8.765625 27.8125 -8.765625 C 29.332031 -8.765625 30.9375 -8.984375 32.625 -9.421875 C 34.320312 -9.859375 35.898438 -10.703125 37.359375 -11.953125 C 38.816406 -13.203125 39.96875 -15.007812 40.8125 -17.375 L 28.78125 -17.375 L 28.78125 -25.234375 L 52.0625 -25.234375 L 52.0625 -23.640625 C 52.0625 -20.296875 51.4375 -17.148438 50.1875 -14.203125 C 48.9375 -11.265625 47.195312 -8.671875 44.96875 -6.421875 C 42.75 -4.179688 40.175781 -2.4375 37.25 -1.1875 C 34.332031 0.0625 31.1875 0.6875 27.8125 0.6875 C 24.46875 0.6875 21.320312 0.0507812 18.375 -1.21875 C 15.4375 -2.488281 12.851562 -4.234375 10.625 -6.453125 C 8.40625 -8.679688 6.65625 -11.265625 5.375 -14.203125 C 4.101562 -17.148438 3.46875 -20.296875 3.46875 -23.640625 C 3.46875 -26.972656 4.101562 -30.109375 5.375 -33.046875 C 6.65625 -35.992188 8.40625 -38.578125 10.625 -40.796875 C 12.851562 -43.023438 15.4375 -44.773438 18.375 -46.046875 C 21.320312 -47.328125 24.46875 -47.96875 27.8125 -47.96875 C 31.28125 -47.96875 34.566406 -47.257812 37.671875 -45.84375 C 40.773438 -44.425781 43.484375 -42.476562 45.796875 -40 C 48.117188 -37.519531 49.816406 -34.640625 50.890625 -31.359375 L 39.421875 -31.359375 C 38.253906 -33.859375 36.601562 -35.628906 34.46875 -36.671875 C 32.34375 -37.710938 30.125 -38.234375 27.8125 -38.234375 Z M 27.8125 -38.234375 "/></g></g></g><g fill="#26221d" fill-opacity="1"><g transform="translate(561.009178, 780.253031)"><g/></g></g><g fill="#26221d" fill-opacity="1"><g transform="translate(598.203704, 780.253031)"><g><path d="M 30.171875 -47.265625 L 41.296875 -47.265625 L 41.296875 0 L 30.171875 0 L 30.171875 -18.984375 L 14.59375 -18.984375 L 14.59375 0 L 4.171875 0 L 4.171875 -47.265625 L 14.59375 -47.265625 L 14.59375 -28.4375 L 30.171875 -28.4375 Z M 30.171875 -47.265625 "/></g></g></g><g fill="#26221d" fill-opacity="1"><g transform="translate(663.48261, 780.253031)"><g><path d="M 31.5625 -9.453125 L 31.5625 0 L 4.171875 0 L 4.171875 -47.265625 L 31.5625 -47.265625 L 31.5625 -37.8125 L 14.59375 -37.8125 L 14.59375 -28.4375 L 30.859375 -28.4375 L 30.859375 -18.984375 L 14.59375 -18.984375 L 14.59375 -9.453125 Z M 31.5625 -9.453125 "/></g></g></g><g fill="#26221d" fill-opacity="1"><g transform="translate(719.029291, 780.253031)"><g><path d="M 29.890625 -18.078125 L 23.90625 -34.890625 L 17.9375 -18.078125 Z M 47.546875 0 L 36.359375 0 L 32.953125 -9.53125 L 14.953125 -9.53125 L 11.546875 0 L 0.34375 0 L 19.53125 -47.265625 L 28.359375 -47.265625 Z M 47.546875 0 "/></g></g></g><g fill="#26221d" fill-opacity="1"><g transform="translate(786.741238, 780.253031)"><g><path d="M 4.171875 0 L 4.171875 -47.265625 L 14.59375 -47.265625 L 14.59375 -9.453125 L 31.5625 -9.453125 L 31.5625 0 Z M 4.171875 0 "/></g></g></g><g fill="#26221d" fill-opacity="1"><g transform="translate(840.550025, 780.253031)"><g><path d="M 24.265625 -37.8125 L 24.265625 0 L 13.828125 0 L 13.828125 -37.8125 L 0.34375 -37.8125 L 0.34375 -47.265625 L 37.75 -47.265625 L 37.75 -37.8125 Z M 24.265625 -37.8125 "/></g></g></g><g fill="#26221d" fill-opacity="1"><g transform="translate(898.460263, 780.253031)"><g><path d="M 30.171875 -47.265625 L 41.296875 -47.265625 L 41.296875 0 L 30.171875 0 L 30.171875 -18.984375 L 14.59375 -18.984375 L 14.59375 0 L 4.171875 0 L 4.171875 -47.265625 L 14.59375 -47.265625 L 14.59375 -28.4375 L 30.171875 -28.4375 Z M 30.171875 -47.265625 "/></g></g></g><g fill="#26221d" fill-opacity="1"><g transform="translate(963.739169, 780.253031)"><g><path d="M 14.734375 -9.453125 L 5.90625 9.3125 L 0.203125 9.3125 L 4.453125 -9.453125 Z M 14.734375 -9.453125 "/></g></g></g><g fill="#26221d" fill-opacity="1"><g transform="translate(1000.655638, 780.253031)"><g/></g></g><g fill="#26221d" fill-opacity="1"><g transform="translate(1037.850164, 780.253031)"><g><path d="M 14.59375 -16.890625 L 14.59375 0 L 4.171875 0 L 4.171875 -47.265625 L 21.890625 -47.265625 C 24.441406 -47.265625 26.816406 -46.628906 29.015625 -45.359375 C 31.222656 -44.085938 33 -42.316406 34.34375 -40.046875 C 35.6875 -37.773438 36.359375 -35.128906 36.359375 -32.109375 C 36.359375 -29.472656 35.867188 -27.132812 34.890625 -25.09375 C 33.921875 -23.050781 32.625 -21.378906 31 -20.078125 C 29.382812 -18.785156 27.578125 -17.882812 25.578125 -17.375 L 39.140625 0 L 25.921875 0 L 14.671875 -16.890625 Z M 20.15625 -39.0625 L 14.59375 -39.0625 L 14.59375 -25.09375 L 20.15625 -25.09375 C 21.6875 -25.09375 23.113281 -25.691406 24.4375 -26.890625 C 25.757812 -28.097656 26.421875 -29.835938 26.421875 -32.109375 C 26.421875 -34.296875 25.757812 -36 24.4375 -37.21875 C 23.113281 -38.445312 21.6875 -39.0625 20.15625 -39.0625 Z M 20.15625 -39.0625 "/></g></g></g><g fill="#26221d" fill-opacity="1"><g transform="translate(1095.968916, 780.253031)"><g><path d="M 31.5625 -9.453125 L 31.5625 0 L 4.171875 0 L 4.171875 -47.265625 L 31.5625 -47.265625 L 31.5625 -37.8125 L 14.59375 -37.8125 L 14.59375 -28.4375 L 30.859375 -28.4375 L 30.859375 -18.984375 L 14.59375 -18.984375 L 14.59375 -9.453125 Z M 31.5625 -9.453125 "/></g></g></g><g fill="#26221d" fill-opacity="1"><g transform="translate(1151.515598, 780.253031)"><g><path d="M 22.515625 -7.375 C 23.628906 -7.375 24.832031 -7.546875 26.125 -7.890625 C 27.425781 -8.234375 28.550781 -8.8125 29.5 -9.625 C 30.457031 -10.4375 30.9375 -11.539062 30.9375 -12.9375 C 30.9375 -14.226562 30.4375 -15.265625 29.4375 -16.046875 C 28.445312 -16.835938 27.140625 -17.488281 25.515625 -18 C 23.890625 -18.507812 22.113281 -18.984375 20.1875 -19.421875 C 18.269531 -19.867188 16.335938 -20.40625 14.390625 -21.03125 C 12.441406 -21.65625 10.65625 -22.476562 9.03125 -23.5 C 7.414062 -24.519531 6.109375 -25.835938 5.109375 -27.453125 C 4.109375 -29.078125 3.609375 -31.140625 3.609375 -33.640625 C 3.609375 -36.097656 4.117188 -38.21875 5.140625 -40 C 6.160156 -41.789062 7.515625 -43.273438 9.203125 -44.453125 C 10.898438 -45.640625 12.800781 -46.519531 14.90625 -47.09375 C 17.019531 -47.675781 19.140625 -47.96875 21.265625 -47.96875 C 24.515625 -47.96875 27.550781 -47.457031 30.375 -46.4375 C 33.207031 -45.414062 35.515625 -43.800781 37.296875 -41.59375 C 39.078125 -39.394531 40.015625 -36.488281 40.109375 -32.875 L 30.03125 -32.875 C 29.75 -35.332031 28.890625 -37.035156 27.453125 -37.984375 C 26.015625 -38.941406 24 -39.421875 21.40625 -39.421875 C 20.4375 -39.421875 19.40625 -39.253906 18.3125 -38.921875 C 17.226562 -38.597656 16.300781 -38.078125 15.53125 -37.359375 C 14.769531 -36.640625 14.390625 -35.679688 14.390625 -34.484375 C 14.390625 -33.273438 14.882812 -32.320312 15.875 -31.625 C 16.875 -30.9375 18.1875 -30.359375 19.8125 -29.890625 C 21.4375 -29.429688 23.21875 -28.992188 25.15625 -28.578125 C 27.101562 -28.160156 29.039062 -27.648438 30.96875 -27.046875 C 32.894531 -26.441406 34.664062 -25.617188 36.28125 -24.578125 C 37.90625 -23.535156 39.210938 -22.175781 40.203125 -20.5 C 41.203125 -18.832031 41.703125 -16.703125 41.703125 -14.109375 C 41.703125 -11.328125 41.144531 -8.960938 40.03125 -7.015625 C 38.925781 -5.066406 37.429688 -3.503906 35.546875 -2.328125 C 33.671875 -1.148438 31.5625 -0.285156 29.21875 0.265625 C 26.882812 0.828125 24.515625 1.109375 22.109375 1.109375 C 18.628906 1.109375 15.367188 0.519531 12.328125 -0.65625 C 9.296875 -1.84375 6.84375 -3.660156 4.96875 -6.109375 C 3.09375 -8.566406 2.128906 -11.722656 2.078125 -15.578125 L 12.65625 -15.578125 C 12.789062 -12.742188 13.832031 -10.664062 15.78125 -9.34375 C 17.726562 -8.03125 19.972656 -7.375 22.515625 -7.375 Z M 22.515625 -7.375 "/></g></g></g><g fill="#26221d" fill-opacity="1"><g transform="translate(1215.126093, 780.253031)"><g><path d="M 24.265625 -37.8125 L 24.265625 0 L 13.828125 0 L 13.828125 -37.8125 L 0.34375 -37.8125 L 0.34375 -47.265625 L 37.75 -47.265625 L 37.75 -37.8125 Z M 24.265625 -37.8125 "/></g></g></g><g fill="#26221d" fill-opacity="1"><g transform="translate(1273.036331, 780.253031)"><g><path d="M 40.671875 -23.703125 C 40.671875 -26.160156 40.019531 -28.441406 38.71875 -30.546875 C 37.425781 -32.660156 35.722656 -34.363281 33.609375 -35.65625 C 31.503906 -36.957031 29.222656 -37.609375 26.765625 -37.609375 C 24.359375 -37.609375 22.085938 -36.957031 19.953125 -35.65625 C 17.816406 -34.363281 16.097656 -32.660156 14.796875 -30.546875 C 13.503906 -28.441406 12.859375 -26.160156 12.859375 -23.703125 C 12.859375 -21.296875 13.503906 -19.023438 14.796875 -16.890625 C 16.097656 -14.753906 17.816406 -13.023438 19.953125 -11.703125 C 22.085938 -10.390625 24.359375 -9.734375 26.765625 -9.734375 C 29.222656 -9.734375 31.503906 -10.390625 33.609375 -11.703125 C 35.722656 -13.023438 37.425781 -14.753906 38.71875 -16.890625 C 40.019531 -19.023438 40.671875 -21.296875 40.671875 -23.703125 Z M 51.09375 -23.640625 C 51.09375 -20.390625 50.441406 -17.289062 49.140625 -14.34375 C 47.847656 -11.40625 46.078125 -8.8125 43.828125 -6.5625 C 41.578125 -4.320312 38.992188 -2.550781 36.078125 -1.25 C 33.160156 0.0390625 30.054688 0.6875 26.765625 0.6875 C 23.515625 0.6875 20.414062 0.0390625 17.46875 -1.25 C 14.53125 -2.550781 11.9375 -4.320312 9.6875 -6.5625 C 7.445312 -8.8125 5.675781 -11.40625 4.375 -14.34375 C 3.082031 -17.289062 2.4375 -20.390625 2.4375 -23.640625 C 2.4375 -26.929688 3.082031 -30.035156 4.375 -32.953125 C 5.675781 -35.867188 7.445312 -38.453125 9.6875 -40.703125 C 11.9375 -42.953125 14.53125 -44.722656 17.46875 -46.015625 C 20.414062 -47.316406 23.515625 -47.96875 26.765625 -47.96875 C 30.054688 -47.96875 33.160156 -47.316406 36.078125 -46.015625 C 38.992188 -44.722656 41.578125 -42.953125 43.828125 -40.703125 C 46.078125 -38.453125 47.847656 -35.867188 49.140625 -32.953125 C 50.441406 -30.035156 51.09375 -26.929688 51.09375 -23.640625 Z M 51.09375 -23.640625 "/></g></g></g><g fill="#26221d" fill-opacity="1"><g transform="translate(1346.378991, 780.253031)"><g><path d="M 14.59375 -16.890625 L 14.59375 0 L 4.171875 0 L 4.171875 -47.265625 L 21.890625 -47.265625 C 24.441406 -47.265625 26.816406 -46.628906 29.015625 -45.359375 C 31.222656 -44.085938 33 -42.316406 34.34375 -40.046875 C 35.6875 -37.773438 36.359375 -35.128906 36.359375 -32.109375 C 36.359375 -29.472656 35.867188 -27.132812 34.890625 -25.09375 C 33.921875 -23.050781 32.625 -21.378906 31 -20.078125 C 29.382812 -18.785156 27.578125 -17.882812 25.578125 -17.375 L 39.140625 0 L 25.921875 0 L 14.671875 -16.890625 Z M 20.15625 -39.0625 L 14.59375 -39.0625 L 14.59375 -25.09375 L 20.15625 -25.09375 C 21.6875 -25.09375 23.113281 -25.691406 24.4375 -26.890625 C 25.757812 -28.097656 26.421875 -29.835938 26.421875 -32.109375 C 26.421875 -34.296875 25.757812 -36 24.4375 -37.21875 C 23.113281 -38.445312 21.6875 -39.0625 20.15625 -39.0625 Z M 20.15625 -39.0625 "/></g></g></g><g fill="#26221d" fill-opacity="1"><g transform="translate(1404.497743, 780.253031)"><g><path d="M 14.59375 0 L 4.171875 0 L 4.171875 -47.265625 L 14.59375 -47.265625 Z M 14.59375 0 "/></g></g></g><g fill="#26221d" fill-opacity="1"><g transform="translate(1443.082621, 780.253031)"><g><path d="M 41.296875 0 L 30.859375 0 L 14.59375 -29.46875 L 14.59375 0 L 4.171875 0 L 4.171875 -47.265625 L 14.59375 -47.265625 L 30.859375 -17.796875 L 30.859375 -47.265625 L 41.296875 -47.265625 Z M 41.296875 0 "/></g></g></g><g fill="#26221d" fill-opacity="1"><g transform="translate(1508.361467, 780.253031)"><g><path d="M 27.8125 -38.234375 C 25.300781 -38.234375 23.003906 -37.5625 20.921875 -36.21875 C 18.835938 -34.875 17.171875 -33.085938 15.921875 -30.859375 C 14.671875 -28.640625 14.046875 -26.1875 14.046875 -23.5 C 14.046875 -20.851562 14.671875 -18.40625 15.921875 -16.15625 C 17.171875 -13.914062 18.835938 -12.125 20.921875 -10.78125 C 23.003906 -9.4375 25.300781 -8.765625 27.8125 -8.765625 C 29.332031 -8.765625 30.9375 -8.984375 32.625 -9.421875 C 34.320312 -9.859375 35.898438 -10.703125 37.359375 -11.953125 C 38.816406 -13.203125 39.96875 -15.007812 40.8125 -17.375 L 28.78125 -17.375 L 28.78125 -25.234375 L 52.0625 -25.234375 L 52.0625 -23.640625 C 52.0625 -20.296875 51.4375 -17.148438 50.1875 -14.203125 C 48.9375 -11.265625 47.195312 -8.671875 44.96875 -6.421875 C 42.75 -4.179688 40.175781 -2.4375 37.25 -1.1875 C 34.332031 0.0625 31.1875 0.6875 27.8125 0.6875 C 24.46875 0.6875 21.320312 0.0507812 18.375 -1.21875 C 15.4375 -2.488281 12.851562 -4.234375 10.625 -6.453125 C 8.40625 -8.679688 6.65625 -11.265625 5.375 -14.203125 C 4.101562 -17.148438 3.46875 -20.296875 3.46875 -23.640625 C 3.46875 -26.972656 4.101562 -30.109375 5.375 -33.046875 C 6.65625 -35.992188 8.40625 -38.578125 10.625 -40.796875 C 12.851562 -43.023438 15.4375 -44.773438 18.375 -46.046875 C 21.320312 -47.328125 24.46875 -47.96875 27.8125 -47.96875 C 31.28125 -47.96875 34.566406 -47.257812 37.671875 -45.84375 C 40.773438 -44.425781 43.484375 -42.476562 45.796875 -40 C 48.117188 -37.519531 49.816406 -34.640625 50.890625 -31.359375 L 39.421875 -31.359375 C 38.253906 -33.859375 36.601562 -35.628906 34.46875 -36.671875 C 32.34375 -37.710938 30.125 -38.234375 27.8125 -38.234375 Z M 27.8125 -38.234375 "/></g></g></g><g fill="#26221d" fill-opacity="1"><g transform="translate(1582.677392, 780.253031)"><g/></g></g><g fill="#26221d" fill-opacity="1"><g transform="translate(1619.871859, 780.253031)"><g><path d="M 30.171875 -47.265625 L 41.296875 -47.265625 L 41.296875 0 L 30.171875 0 L 30.171875 -18.984375 L 14.59375 -18.984375 L 14.59375 0 L 4.171875 0 L 4.171875 -47.265625 L 14.59375 -47.265625 L 14.59375 -28.4375 L 30.171875 -28.4375 Z M 30.171875 -47.265625 "/></g></g></g><g fill="#26221d" fill-opacity="1"><g transform="translate(1685.150705, 780.253031)"><g><path d="M 40.671875 -23.703125 C 40.671875 -26.160156 40.019531 -28.441406 38.71875 -30.546875 C 37.425781 -32.660156 35.722656 -34.363281 33.609375 -35.65625 C 31.503906 -36.957031 29.222656 -37.609375 26.765625 -37.609375 C 24.359375 -37.609375 22.085938 -36.957031 19.953125 -35.65625 C 17.816406 -34.363281 16.097656 -32.660156 14.796875 -30.546875 C 13.503906 -28.441406 12.859375 -26.160156 12.859375 -23.703125 C 12.859375 -21.296875 13.503906 -19.023438 14.796875 -16.890625 C 16.097656 -14.753906 17.816406 -13.023438 19.953125 -11.703125 C 22.085938 -10.390625 24.359375 -9.734375 26.765625 -9.734375 C 29.222656 -9.734375 31.503906 -10.390625 33.609375 -11.703125 C 35.722656 -13.023438 37.425781 -14.753906 38.71875 -16.890625 C 40.019531 -19.023438 40.671875 -21.296875 40.671875 -23.703125 Z M 51.09375 -23.640625 C 51.09375 -20.390625 50.441406 -17.289062 49.140625 -14.34375 C 47.847656 -11.40625 46.078125 -8.8125 43.828125 -6.5625 C 41.578125 -4.320312 38.992188 -2.550781 36.078125 -1.25 C 33.160156 0.0390625 30.054688 0.6875 26.765625 0.6875 C 23.515625 0.6875 20.414062 0.0390625 17.46875 -1.25 C 14.53125 -2.550781 11.9375 -4.320312 9.6875 -6.5625 C 7.445312 -8.8125 5.675781 -11.40625 4.375 -14.34375 C 3.082031 -17.289062 2.4375 -20.390625 2.4375 -23.640625 C 2.4375 -26.929688 3.082031 -30.035156 4.375 -32.953125 C 5.675781 -35.867188 7.445312 -38.453125 9.6875 -40.703125 C 11.9375 -42.953125 14.53125 -44.722656 17.46875 -46.015625 C 20.414062 -47.316406 23.515625 -47.96875 26.765625 -47.96875 C 30.054688 -47.96875 33.160156 -47.316406 36.078125 -46.015625 C 38.992188 -44.722656 41.578125 -42.953125 43.828125 -40.703125 C 46.078125 -38.453125 47.847656 -35.867188 49.140625 -32.953125 C 50.441406 -30.035156 51.09375 -26.929688 51.09375 -23.640625 Z M 51.09375 -23.640625 "/></g></g></g><g fill="#26221d" fill-opacity="1"><g transform="translate(1758.493365, 780.253031)"><g><path d="M 14.59375 -16.890625 L 14.59375 0 L 4.171875 0 L 4.171875 -47.265625 L 21.890625 -47.265625 C 24.441406 -47.265625 26.816406 -46.628906 29.015625 -45.359375 C 31.222656 -44.085938 33 -42.316406 34.34375 -40.046875 C 35.6875 -37.773438 36.359375 -35.128906 36.359375 -32.109375 C 36.359375 -28.910156 35.6875 -26.175781 34.34375 -23.90625 C 33 -21.632812 31.222656 -19.894531 29.015625 -18.6875 C 26.816406 -17.488281 24.441406 -16.890625 21.890625 -16.890625 Z M 20.15625 -39.0625 L 14.59375 -39.0625 L 14.59375 -25.09375 L 20.15625 -25.09375 C 21.6875 -25.09375 23.113281 -25.691406 24.4375 -26.890625 C 25.757812 -28.097656 26.421875 -29.835938 26.421875 -32.109375 C 26.421875 -34.296875 25.757812 -36 24.4375 -37.21875 C 23.113281 -38.445312 21.6875 -39.0625 20.15625 -39.0625 Z M 20.15625 -39.0625 "/></g></g></g><g fill="#26221d" fill-opacity="1"><g transform="translate(1815.708397, 780.253031)"><g><path d="M 31.5625 -9.453125 L 31.5625 0 L 4.171875 0 L 4.171875 -47.265625 L 31.5625 -47.265625 L 31.5625 -37.8125 L 14.59375 -37.8125 L 14.59375 -28.4375 L 30.859375 -28.4375 L 30.859375 -18.984375 L 14.59375 -18.984375 L 14.59375 -9.453125 Z M 31.5625 -9.453125 "/></g></g></g></svg>