<svg xmlns="http://www.w3.org/2000/svg" xmlns:xlink="http://www.w3.org/1999/xlink" width="2560" zoomAndPan="magnify" viewBox="0 0 1920 1079.999946" height="1440" preserveAspectRatio="xMidYMid meet" version="1.0"><defs><g/><clipPath id="5ad21a61df"><path d="M 1203.285156 44.375 L 1813 44.375 L 1813 424 L 1203.285156 424 Z M 1203.285156 44.375 " clip-rule="nonzero"/></clipPath><clipPath id="b1b73bcd97"><path d="M 1357 157 L 1706 157 L 1706 622.851562 L 1357 622.851562 Z M 1357 157 " clip-rule="nonzero"/></clipPath></defs><g clip-path="url(#5ad21a61df)"><path fill="#bfe063" d="M 1555.136719 407.242188 C 1555.136719 407.242188 1439.066406 410.960938 1330.433594 317.609375 C 1221.800781 224.261719 1205.074219 47.472656 1203.835938 48.710938 C 1202.59375 49.953125 1368.230469 16.703125 1489.460938 126.988281 C 1610.691406 237.269531 1555.136719 407.242188 1555.136719 407.242188 Z M 1780.457031 289.730469 C 1815.152344 220.542969 1812.261719 132.148438 1812.261719 132.148438 C 1812.261719 132.148438 1700.53125 131.324219 1638.570312 207.945312 C 1558.441406 306.664062 1591.484375 423.972656 1591.484375 423.972656 C 1591.484375 423.972656 1730.269531 389.6875 1780.457031 289.730469 Z M 1780.457031 289.730469 " fill-opacity="1" fill-rule="nonzero"/></g><g clip-path="url(#b1b73bcd97)"><path fill="#008000" d="M 1702.800781 233.140625 C 1698.878906 229.011719 1692.269531 229.011719 1688.136719 232.933594 C 1622.667969 297.371094 1590.453125 373.992188 1574.753906 452.058594 C 1557.40625 363.664062 1508.875 229.421875 1372.773438 158.792969 C 1367.609375 156.105469 1361.414062 158.171875 1358.933594 163.128906 C 1356.25 168.085938 1358.316406 174.488281 1363.273438 176.964844 C 1553.277344 275.683594 1563.191406 507.203125 1563.601562 535.082031 C 1561.539062 561.3125 1560.917969 587.125 1560.710938 612.324219 C 1560.710938 618.105469 1565.253906 622.648438 1571.039062 622.648438 C 1576.613281 622.648438 1581.363281 618.105469 1581.363281 612.324219 C 1581.570312 588.777344 1582.191406 564.820312 1583.84375 540.453125 C 1584.050781 539.625 1584.253906 538.800781 1584.253906 537.972656 L 1584.253906 535.703125 C 1592.105469 434.710938 1618.746094 329.796875 1702.59375 247.390625 C 1706.726562 243.671875 1706.726562 237.269531 1702.800781 233.140625 Z M 1702.800781 233.140625 " fill-opacity="1" fill-rule="nonzero"/></g><g fill="#008000" fill-opacity="1"><g transform="translate(0.000048, 616.479918)"><g><path d="M 132.671875 -91.90625 C 143.484375 -89.375 151.882812 -84.179688 157.875 -76.328125 C 163.863281 -68.484375 166.859375 -59.414062 166.859375 -49.125 C 166.859375 -33.425781 161.664062 -21.3125 151.28125 -12.78125 C 140.90625 -4.257812 126.007812 0 106.59375 0 L 12.65625 0 L 12.65625 -179.265625 L 104.0625 -179.265625 C 122.289062 -179.265625 136.640625 -175.296875 147.109375 -167.359375 C 157.578125 -159.429688 162.8125 -147.867188 162.8125 -132.671875 C 162.8125 -122.210938 160.066406 -113.394531 154.578125 -106.21875 C 149.085938 -99.039062 141.785156 -94.269531 132.671875 -91.90625 Z M 68.875 -109.390625 L 90.640625 -109.390625 C 95.710938 -109.390625 99.46875 -110.398438 101.90625 -112.421875 C 104.351562 -114.441406 105.578125 -117.566406 105.578125 -121.796875 C 105.578125 -126.179688 104.351562 -129.425781 101.90625 -131.53125 C 99.46875 -133.644531 95.710938 -134.703125 90.640625 -134.703125 L 68.875 -134.703125 Z M 94.4375 -45.0625 C 99.507812 -45.0625 103.269531 -46.03125 105.71875 -47.96875 C 108.164062 -49.914062 109.390625 -53.085938 109.390625 -57.484375 C 109.390625 -66.085938 104.40625 -70.390625 94.4375 -70.390625 L 68.875 -70.390625 L 68.875 -45.0625 Z M 94.4375 -45.0625 "/></g></g></g><g fill="#008000" fill-opacity="1"><g transform="translate(224.589521, 616.479918)"><g><path d="M 102.796875 0 L 69.125 -64.3125 L 68.875 -64.3125 L 68.875 0 L 12.65625 0 L 12.65625 -179.265625 L 96.21875 -179.265625 C 110.738281 -179.265625 123.144531 -176.691406 133.4375 -171.546875 C 143.738281 -166.398438 151.460938 -159.394531 156.609375 -150.53125 C 161.753906 -141.664062 164.328125 -131.664062 164.328125 -120.53125 C 164.328125 -108.539062 160.992188 -97.898438 154.328125 -88.609375 C 147.660156 -79.328125 138.082031 -72.664062 125.59375 -68.625 L 164.578125 0 Z M 68.875 -101.78125 L 91.15625 -101.78125 C 96.550781 -101.78125 100.597656 -103.003906 103.296875 -105.453125 C 106.003906 -107.898438 107.359375 -111.742188 107.359375 -116.984375 C 107.359375 -121.703125 105.960938 -125.410156 103.171875 -128.109375 C 100.390625 -130.816406 96.382812 -132.171875 91.15625 -132.171875 L 68.875 -132.171875 Z M 68.875 -101.78125 "/></g></g></g><g fill="#008000" fill-opacity="1"><g transform="translate(445.634268, 616.479918)"><g><path d="M 68.875 -134.453125 L 68.875 -112.421875 L 124.578125 -112.421875 L 124.578125 -70.140625 L 68.875 -70.140625 L 68.875 -44.8125 L 132.171875 -44.8125 L 132.171875 0 L 12.65625 0 L 12.65625 -179.265625 L 132.171875 -179.265625 L 132.171875 -134.453125 Z M 68.875 -134.453125 "/></g></g></g><g fill="#008000" fill-opacity="1"><g transform="translate(637.814877, 616.479918)"><g><path d="M 127.609375 -27.09375 L 67.859375 -27.09375 L 59 0 L 0 0 L 65.578125 -179.265625 L 130.40625 -179.265625 L 195.71875 0 L 136.46875 0 Z M 113.9375 -69.375 L 97.734375 -119.265625 L 81.53125 -69.375 Z M 113.9375 -69.375 "/></g></g></g><g fill="#008000" fill-opacity="1"><g transform="translate(884.938619, 616.479918)"><g><path d="M 7.59375 -89.890625 C 7.59375 -107.609375 11.179688 -123.390625 18.359375 -137.234375 C 25.535156 -151.078125 35.789062 -161.835938 49.125 -169.515625 C 62.457031 -177.203125 78.15625 -181.046875 96.21875 -181.046875 C 111.75 -181.046875 125.628906 -178.128906 137.859375 -172.296875 C 150.097656 -166.472656 160.054688 -158.242188 167.734375 -147.609375 C 175.421875 -136.984375 180.53125 -124.578125 183.0625 -110.390625 L 123.8125 -110.390625 C 121.113281 -116.304688 117.273438 -120.910156 112.296875 -124.203125 C 107.316406 -127.492188 101.617188 -129.140625 95.203125 -129.140625 C 85.753906 -129.140625 78.285156 -125.59375 72.796875 -118.5 C 67.304688 -111.40625 64.5625 -101.867188 64.5625 -89.890625 C 64.5625 -77.898438 67.304688 -68.359375 72.796875 -61.265625 C 78.285156 -54.179688 85.753906 -50.640625 95.203125 -50.640625 C 101.617188 -50.640625 107.316406 -52.285156 112.296875 -55.578125 C 117.273438 -58.867188 121.113281 -63.46875 123.8125 -69.375 L 183.0625 -69.375 C 180.53125 -55.195312 175.421875 -42.789062 167.734375 -32.15625 C 160.054688 -21.519531 150.097656 -13.289062 137.859375 -7.46875 C 125.628906 -1.644531 111.75 1.265625 96.21875 1.265625 C 78.15625 1.265625 62.457031 -2.570312 49.125 -10.25 C 35.789062 -17.9375 25.535156 -28.695312 18.359375 -42.53125 C 11.179688 -56.375 7.59375 -72.160156 7.59375 -89.890625 Z M 7.59375 -89.890625 "/></g></g></g><g fill="#008000" fill-opacity="1"><g transform="translate(1126.998492, 616.479918)"><g><path d="M 178.515625 -179.265625 L 178.515625 0 L 122.296875 0 L 122.296875 -69.890625 L 68.875 -69.890625 L 68.875 0 L 12.65625 0 L 12.65625 -179.265625 L 68.875 -179.265625 L 68.875 -114.703125 L 122.296875 -114.703125 L 122.296875 -179.265625 Z M 178.515625 -179.265625 "/></g></g></g><g fill="#008000" fill-opacity="1"><g transform="translate(1369.564715, 616.479918)"><g><path d="M 139.265625 -179.265625 L 139.265625 -134.703125 L 68.875 -134.703125 L 68.875 -109.890625 L 119.515625 -109.890625 L 119.515625 -67.609375 L 68.875 -67.609375 L 68.875 0 L 12.65625 0 L 12.65625 -179.265625 Z M 139.265625 -179.265625 "/></g></g></g><g fill="#008000" fill-opacity="1"><g transform="translate(1566.555988, 616.479918)"><g/></g></g><g fill="#008000" fill-opacity="1"><g transform="translate(1661.003563, 616.479918)"><g><path d="M 126.859375 0 L 93.9375 -46.59375 L 66.59375 0 L 2.53125 0 L 61.53125 -92.421875 L 0 -179.265625 L 66.59375 -179.265625 L 98.25 -134.453125 L 124.578125 -179.265625 L 188.640625 -179.265625 L 130.65625 -88.625 L 193.453125 0 Z M 126.859375 0 "/></g></g></g><g fill="#242424" fill-opacity="1"><g transform="translate(1905.870895, 616.479918)"><g/></g></g><g fill="#242424" fill-opacity="1"><g transform="translate(94.447655, 970.878401)"><g/></g></g><g fill="#242424" fill-opacity="1"><g transform="translate(188.895262, 970.878401)"><g/></g></g><g fill="#242424" fill-opacity="1"><g transform="translate(283.359747, 970.878401)"><g><path d="M 197.5 -179.265625 L 165.84375 0 L 109.640625 0 L 122.046875 -69.890625 L 68.625 -69.890625 L 56.21875 0 L 0 0 L 31.65625 -179.265625 L 87.859375 -179.265625 L 76.46875 -114.703125 L 129.890625 -114.703125 L 141.28125 -179.265625 Z M 197.5 -179.265625 "/></g></g></g><g fill="#242424" fill-opacity="1"><g transform="translate(525.926001, 970.878401)"><g><path d="M 80.015625 -134.703125 L 76.21875 -112.421875 L 131.921875 -112.421875 L 124.328125 -70.140625 L 68.625 -70.140625 L 64.0625 -44.8125 L 127.359375 -44.8125 L 119.515625 0 L 0 0 L 31.65625 -179.265625 L 151.15625 -179.265625 L 143.3125 -134.703125 Z M 80.015625 -134.703125 "/></g></g></g><g fill="#242424" fill-opacity="1"><g transform="translate(718.10661, 970.878401)"><g><path d="M 119.765625 -27.09375 L 60.015625 -27.09375 L 46.34375 0 L -12.65625 0 L 84.5625 -179.265625 L 149.390625 -179.265625 L 183.0625 0 L 123.8125 0 Z M 113.6875 -69.375 L 106.34375 -119.265625 L 81.28125 -69.375 Z M 113.6875 -69.375 "/></g></g></g><g fill="#242424" fill-opacity="1"><g transform="translate(965.230352, 970.878401)"><g><path d="M 63.8125 -42.53125 L 118 -42.53125 L 110.390625 0 L 0 0 L 31.65625 -179.265625 L 87.859375 -179.265625 Z M 63.8125 -42.53125 "/></g></g></g><g fill="#242424" fill-opacity="1"><g transform="translate(1144.751256, 970.878401)"><g><path d="M 172.4375 -179.265625 L 164.578125 -134.703125 L 116.984375 -134.703125 L 93.171875 0 L 36.96875 0 L 60.765625 -134.703125 L 13.671875 -134.703125 L 21.515625 -179.265625 Z M 172.4375 -179.265625 "/></g></g></g><g fill="#242424" fill-opacity="1"><g transform="translate(1352.123505, 970.878401)"><g><path d="M 197.5 -179.265625 L 165.84375 0 L 109.640625 0 L 122.046875 -69.890625 L 68.625 -69.890625 L 56.21875 0 L 0 0 L 31.65625 -179.265625 L 87.859375 -179.265625 L 76.46875 -114.703125 L 129.890625 -114.703125 L 141.28125 -179.265625 Z M 197.5 -179.265625 "/></g></g></g></svg>